<?xml version="1.0" encoding="UTF-8"?>
<svg width="700pt" height="700pt" version="1.1" viewBox="0 0 700 700" xmlns="http://www.w3.org/2000/svg">
 <g>
  <path d="m156.66 245.91c24.992 82.762 38.422 168.59 39.898 255.03l18.867-0.4375c-1.5352-88.195-15.25-175.75-40.758-260.19z"/>
  <path d="m484.57 500.5 18.863 0.4375h0.003906c1.4766-86.441 14.902-172.27 39.898-255.03l-18.008-5.6016c-25.512 84.438-39.227 172-40.758 260.19z"/>
  <path d="m359.43 290.05v-46.938h-18.867v46.988c-12.672 5.25-48.859 14.891-82.129-29.75l-15.156 11.27h0.003906c16.039 25.184 43.516 40.777 73.359 41.633 11.469-0.011719 22.812-2.3477 33.355-6.8594 10.531 4.5312 21.871 6.8828 33.336 6.9102 29.891-0.86719 57.398-16.52 73.414-41.77l-15.137-11.234c-33.039 44.359-69.441 34.965-82.18 29.75z"/>
  <path d="m359.43 379.94v-46.918h-18.867v46.969c-12.672 5.25-48.859 14.926-82.129-29.75l-15.156 11.289h0.003906c16.012 25.23 43.492 40.871 73.359 41.758 11.477-0.054687 22.824-2.4375 33.355-7 10.523 4.5625 21.867 6.9453 33.336 7 29.906-0.88281 57.418-16.562 73.414-41.844l-15.137-11.254c-33.039 44.348-69.441 34.965-82.18 29.75z"/>
  <path d="m359.43 469.84v-46.918h-18.867v46.988c-12.672 5.25-48.879 14.926-82.129-29.75l-15.156 11.27h0.003906c16.051 25.23 43.574 40.848 73.465 41.684 11.438-0.039062 22.746-2.3906 33.25-6.9102 10.531 4.5312 21.871 6.8828 33.336 6.9102 29.891-0.85938 57.398-16.504 73.414-41.754l-15.137-11.27c-33.039 44.379-69.441 35.02-82.18 29.75z"/>
  <path d="m567.35 104.89c-1.2422 3.1836-31.379 78.137-110.07 78.137h-0.003906c-34.027 1.8945-67.91-5.7383-97.84-22.031v-101.94h-18.867v101.83c-29.918 16.344-63.801 24.012-97.84 22.137-78.75 0-108.83-74.953-110.07-78.137l-17.605 6.8086c0.35156 0.89062 35.859 90.211 127.75 90.211 37.332 1.9062 74.457-6.6328 107.2-24.656 32.77 18.039 69.918 26.578 107.27 24.656 91.805 0 127.33-89.25 127.75-90.211z"/>
 </g>
</svg>
