<?xml version="1.0" encoding="UTF-8"?>
<svg width="700pt" height="700pt" version="1.1" viewBox="0 0 700 700" xmlns="http://www.w3.org/2000/svg" xmlns:xlink="http://www.w3.org/1999/xlink">
 <defs>
  <symbol id="u" overflow="visible">
   <path d="m20.391-1.2188c-1.0547 0.54297-2.1523 0.95312-3.2969 1.2344-1.1367 0.28125-2.3203 0.42188-3.5469 0.42188-3.6992 0-6.6328-1.0312-8.7969-3.0938-2.1562-2.0703-3.2344-4.8789-3.2344-8.4219 0-3.5391 1.0781-6.3438 3.2344-8.4062 2.1641-2.0703 5.0977-3.1094 8.7969-3.1094 1.2266 0 2.4102 0.14062 3.5469 0.42188 1.1445 0.27344 2.2422 0.68359 3.2969 1.2344v4.5938c-1.0625-0.72656-2.1094-1.2578-3.1406-1.5938-1.0312-0.33203-2.1172-0.5-3.25-0.5-2.043 0-3.6484 0.65625-4.8125 1.9688-1.168 1.3047-1.75 3.1016-1.75 5.3906 0 2.293 0.58203 4.0938 1.75 5.4062 1.1641 1.3047 2.7695 1.9531 4.8125 1.9531 1.1328 0 2.2188-0.16406 3.25-0.5 1.0312-0.33203 2.0781-0.86328 3.1406-1.5938z"/>
  </symbol>
  <symbol id="b" overflow="visible">
   <path d="m14.922-12.109c-0.46875-0.21875-0.93359-0.37891-1.3906-0.48438-0.46094-0.10156-0.92188-0.15625-1.3906-0.15625-1.3672 0-2.418 0.4375-3.1562 1.3125-0.74219 0.875-1.1094 2.1328-1.1094 3.7656v7.6719h-5.3125v-16.641h5.3125v2.7344c0.6875-1.0938 1.4727-1.8906 2.3594-2.3906 0.88281-0.5 1.9453-0.75 3.1875-0.75 0.17578 0 0.36719 0.011719 0.57812 0.03125 0.20703 0.011719 0.50781 0.042969 0.90625 0.09375z"/>
  </symbol>
  <symbol id="a" overflow="visible">
   <path d="m19.172-8.375v1.5312h-12.438c0.125 1.2422 0.57031 2.1719 1.3438 2.7969 0.78125 0.625 1.8633 0.9375 3.25 0.9375 1.1133 0 2.2578-0.16406 3.4375-0.5 1.1758-0.33203 2.3828-0.83203 3.625-1.5v4.0938c-1.2617 0.48047-2.5234 0.83984-3.7812 1.0781-1.2617 0.25-2.5234 0.375-3.7812 0.375-3.0117 0-5.3516-0.76562-7.0156-2.2969-1.668-1.5312-2.5-3.6797-2.5-6.4531 0-2.707 0.81641-4.8359 2.4531-6.3906 1.6445-1.5625 3.8984-2.3438 6.7656-2.3438 2.6133 0 4.707 0.78906 6.2812 2.3594 1.5703 1.5742 2.3594 3.6797 2.3594 6.3125zm-5.4688-1.7656c0-1.0078-0.29688-1.8203-0.89062-2.4375-0.58594-0.625-1.3555-0.9375-2.3125-0.9375-1.0234 0-1.8555 0.29297-2.5 0.875-0.64844 0.58594-1.0469 1.418-1.2031 2.5z"/>
  </symbol>
  <symbol id="e" overflow="visible">
   <path d="m10.016-7.4844c-1.1055 0-1.9375 0.1875-2.5 0.5625s-0.84375 0.92969-0.84375 1.6562c0 0.67969 0.22266 1.2109 0.67188 1.5938 0.45703 0.375 1.0859 0.5625 1.8906 0.5625 1 0 1.8359-0.35938 2.5156-1.0781 0.6875-0.71875 1.0312-1.6133 1.0312-2.6875v-0.60938zm8.125-2.0156v9.5h-5.3594v-2.4688c-0.71094 1.0117-1.5117 1.75-2.4062 2.2188-0.89844 0.45703-1.9805 0.6875-3.25 0.6875-1.7305 0-3.1328-0.50391-4.2031-1.5156-1.0742-1.0078-1.6094-2.3164-1.6094-3.9219 0-1.9453 0.66406-3.375 2-4.2812 1.3438-0.91406 3.4531-1.375 6.3281-1.375h3.1406v-0.42188c0-0.83203-0.33594-1.4453-1-1.8438-0.65625-0.39453-1.6953-0.59375-3.1094-0.59375-1.1367 0-2.1953 0.11719-3.1719 0.34375-0.98047 0.23047-1.8906 0.57422-2.7344 1.0312v-4.0625c1.1328-0.26953 2.2734-0.47656 3.4219-0.625 1.1562-0.14453 2.3047-0.21875 3.4531-0.21875 3.0078 0 5.1758 0.59375 6.5 1.7812 1.332 1.1797 2 3.1016 2 5.7656z"/>
  </symbol>
  <symbol id="d" overflow="visible">
   <path d="m8.375-21.375v4.7344h5.4688v3.7969h-5.4688v7.0625c0 0.77344 0.14844 1.293 0.45312 1.5625 0.30078 0.27344 0.91016 0.40625 1.8281 0.40625h2.7344v3.8125h-4.5625c-2.1055 0-3.5938-0.4375-4.4688-1.3125s-1.3125-2.3633-1.3125-4.4688v-7.0625h-2.6406v-3.7969h2.6406v-4.7344z"/>
  </symbol>
  <symbol id="h" overflow="visible">
   <path d="m13.875-14.203v-8.9219h5.3594v23.125h-5.3594v-2.4062c-0.73047 0.98047-1.5391 1.6992-2.4219 2.1562-0.875 0.45703-1.8984 0.6875-3.0625 0.6875-2.043 0-3.7266-0.8125-5.0469-2.4375-1.3125-1.6328-1.9688-3.7383-1.9688-6.3125 0-2.5625 0.65625-4.6562 1.9688-6.2812 1.3203-1.6328 3.0039-2.4531 5.0469-2.4531 1.1562 0 2.1758 0.23047 3.0625 0.6875 0.88281 0.46094 1.6914 1.1797 2.4219 2.1562zm-3.5 10.766c1.1328 0 2-0.41406 2.5938-1.25 0.60156-0.83203 0.90625-2.0391 0.90625-3.625 0-1.582-0.30469-2.7891-0.90625-3.625-0.59375-0.83203-1.4609-1.25-2.5938-1.25-1.1367 0-2.0078 0.41797-2.6094 1.25-0.59375 0.83594-0.89062 2.043-0.89062 3.625 0 1.5859 0.29688 2.793 0.89062 3.625 0.60156 0.83594 1.4727 1.25 2.6094 1.25z"/>
  </symbol>
  <symbol id="k" overflow="visible">
   <path d="m11.422-3.4375c1.1328 0 2-0.41406 2.5938-1.25 0.60156-0.83203 0.90625-2.0391 0.90625-3.625 0-1.582-0.30469-2.7891-0.90625-3.625-0.59375-0.83203-1.4609-1.25-2.5938-1.25-1.1484 0-2.0273 0.42188-2.6406 1.2656-0.60547 0.83594-0.90625 2.0391-0.90625 3.6094 0 1.5859 0.30078 2.793 0.90625 3.625 0.61328 0.83594 1.4922 1.25 2.6406 1.25zm-3.5469-10.766c0.73828-0.97656 1.5508-1.6953 2.4375-2.1562 0.89453-0.45703 1.9219-0.6875 3.0781-0.6875 2.0508 0 3.7344 0.82031 5.0469 2.4531 1.3203 1.625 1.9844 3.7188 1.9844 6.2812 0 2.5742-0.66406 4.6797-1.9844 6.3125-1.3125 1.625-2.9961 2.4375-5.0469 2.4375-1.1562 0-2.1836-0.23047-3.0781-0.6875-0.88672-0.46875-1.6992-1.1875-2.4375-2.1562v2.4062h-5.3125v-23.125h5.3125z"/>
  </symbol>
  <symbol id="g" overflow="visible">
   <path d="m0.375-16.641h5.3125l4.4844 11.297 3.7969-11.297h5.3281l-7 18.219c-0.71094 1.8516-1.5312 3.1445-2.4688 3.875-0.9375 0.73828-2.1719 1.1094-3.7031 1.1094h-3.0781v-3.4844h1.6719c0.89453 0 1.5469-0.14844 1.9531-0.4375 0.41406-0.28125 0.73828-0.79688 0.96875-1.5469l0.14062-0.45312z"/>
  </symbol>
  <symbol id="j" overflow="visible">
   <path d="m2.7969-22.188h7.2812l5.0469 11.875 5.0938-11.875h7.2656v22.188h-5.4219v-16.234l-5.1094 11.969h-3.625l-5.1094-11.969v16.234h-5.4219z"/>
  </symbol>
  <symbol id="i" overflow="visible">
   <path d="m2.5625-23.125h5.3125v12.594l6.125-6.1094h6.1875l-8.1406 7.6406 8.7812 9h-6.4531l-6.5-6.9375v6.9375h-5.3125z"/>
  </symbol>
  <symbol id="f" overflow="visible">
   <path d="m19.297-10.141v10.141h-5.3594v-7.7656c0-1.4258-0.03125-2.4102-0.09375-2.9531-0.0625-0.55078-0.17188-0.95703-0.32812-1.2188-0.21094-0.34375-0.49609-0.60938-0.85938-0.79688-0.35547-0.19531-0.76172-0.29688-1.2188-0.29688-1.1055 0-1.9766 0.42969-2.6094 1.2812-0.63672 0.85547-0.95312 2.043-0.95312 3.5625v8.1875h-5.3125v-16.641h5.3125v2.4375c0.80078-0.97656 1.6484-1.6953 2.5469-2.1562 0.90625-0.45703 1.9062-0.6875 3-0.6875 1.9141 0 3.375 0.58984 4.375 1.7656 1 1.1797 1.5 2.8906 1.5 5.1406z"/>
  </symbol>
  <symbol id="c" overflow="visible">
   <path d="m10.484-13.234c-1.1875 0-2.0938 0.42188-2.7188 1.2656-0.61719 0.84375-0.92188 2.0625-0.92188 3.6562s0.30469 2.8203 0.92188 3.6719c0.625 0.84375 1.5312 1.2656 2.7188 1.2656 1.1562 0 2.0391-0.42188 2.6562-1.2656 0.61328-0.85156 0.92188-2.0781 0.92188-3.6719s-0.30859-2.8125-0.92188-3.6562c-0.61719-0.84375-1.5-1.2656-2.6562-1.2656zm0-3.8125c2.8516 0 5.0859 0.77734 6.7031 2.3281 1.6133 1.543 2.4219 3.6797 2.4219 6.4062 0 2.7422-0.80859 4.8867-2.4219 6.4375-1.6172 1.543-3.8516 2.3125-6.7031 2.3125-2.875 0-5.125-0.76953-6.75-2.3125-1.6172-1.5508-2.4219-3.6953-2.4219-6.4375 0-2.7266 0.80469-4.8633 2.4219-6.4062 1.625-1.5508 3.875-2.3281 6.75-2.3281z"/>
  </symbol>
  <symbol id="t" overflow="visible">
   <path d="m16.266-4.0469h-8.9531l-1.4062 4.0469h-5.75l8.2188-22.188h6.8125l8.2188 22.188h-5.75zm-7.5312-4.1094h6.0781l-3.0312-8.8281z"/>
  </symbol>
  <symbol id="s" overflow="visible">
   <path d="m13.516-23.125v3.5h-2.9531c-0.75 0-1.2773 0.13672-1.5781 0.40625-0.29297 0.27344-0.4375 0.74219-0.4375 1.4062v1.1719h4.5469v3.7969h-4.5469v12.844h-5.3281v-12.844h-2.6406v-3.7969h2.6406v-1.1719c0-1.8125 0.50391-3.1484 1.5156-4.0156 1.0078-0.86328 2.5781-1.2969 4.7031-1.2969z"/>
  </symbol>
  <symbol id="r" overflow="visible">
   <path d="m17.984-13.875c0.67578-1.0312 1.4727-1.8164 2.3906-2.3594 0.92578-0.53906 1.9453-0.8125 3.0625-0.8125 1.9141 0 3.375 0.58984 4.375 1.7656 1 1.1797 1.5 2.8906 1.5 5.1406v10.141h-5.3594v-8.6719c0.007813-0.13281 0.015625-0.26953 0.015625-0.40625 0.007812-0.13281 0.015625-0.33203 0.015625-0.59375 0-1.1758-0.17188-2.0312-0.51562-2.5625s-0.90625-0.79688-1.6875-0.79688c-1.0117 0-1.793 0.41797-2.3438 1.25-0.54297 0.83594-0.82422 2.0391-0.84375 3.6094v8.1719h-5.3594v-8.6719c0-1.8438-0.15625-3.0312-0.46875-3.5625s-0.875-0.79688-1.6875-0.79688c-1.0234 0-1.8125 0.42188-2.375 1.2656-0.55469 0.83594-0.82812 2.0273-0.82812 3.5781v8.1875h-5.3438v-16.641h5.3438v2.4375c0.65625-0.94531 1.4062-1.6562 2.25-2.125 0.85156-0.47656 1.7891-0.71875 2.8125-0.71875 1.1445 0 2.1562 0.28125 3.0312 0.84375 0.88281 0.55469 1.5547 1.3281 2.0156 2.3281z"/>
  </symbol>
  <symbol id="q" overflow="visible">
   <path d="m19.297-10.141v10.141h-5.3594v-7.7344c0-1.4453-0.03125-2.4414-0.09375-2.9844-0.0625-0.55078-0.17188-0.95703-0.32812-1.2188-0.21094-0.34375-0.49609-0.60938-0.85938-0.79688-0.35547-0.19531-0.76172-0.29688-1.2188-0.29688-1.1055 0-1.9766 0.42969-2.6094 1.2812-0.63672 0.85547-0.95312 2.043-0.95312 3.5625v8.1875h-5.3125v-23.125h5.3125v8.9219c0.80078-0.97656 1.6484-1.6953 2.5469-2.1562 0.90625-0.45703 1.9062-0.6875 3-0.6875 1.9141 0 3.375 0.58984 4.375 1.7656 1 1.1797 1.5 2.8906 1.5 5.1406z"/>
  </symbol>
  <symbol id="p" overflow="visible">
   <path d="m2.7969-22.188h6.3906l8.0625 15.219v-15.219h5.4219v22.188h-6.3906l-8.0625-15.219v15.219h-5.4219z"/>
  </symbol>
  <symbol id="o" overflow="visible">
   <path d="m2.375-6.4844v-10.156h5.3594v1.6562c0 0.90625-0.007813 2.043-0.015625 3.4062-0.011719 1.3555-0.015625 2.2617-0.015625 2.7188 0 1.3438 0.03125 2.3125 0.09375 2.9062 0.070313 0.58594 0.19141 1.0078 0.35938 1.2656 0.21875 0.35547 0.50391 0.625 0.85938 0.8125 0.35156 0.1875 0.75391 0.28125 1.2031 0.28125 1.1133 0 1.9883-0.42578 2.625-1.2812 0.63281-0.85156 0.95312-2.0352 0.95312-3.5469v-8.2188h5.3125v16.641h-5.3125v-2.4062c-0.80469 0.96875-1.6562 1.6875-2.5625 2.1562-0.89844 0.45703-1.8828 0.6875-2.9531 0.6875-1.9297 0-3.3984-0.58594-4.4062-1.7656-1-1.1875-1.5-2.9062-1.5-5.1562z"/>
  </symbol>
  <symbol id="n" overflow="visible">
   <path d="m2.7969-22.188h9.5c2.8203 0 4.9883 0.63281 6.5 1.8906 1.5078 1.25 2.2656 3.0312 2.2656 5.3438 0 2.3359-0.75781 4.125-2.2656 5.375-1.5117 1.25-3.6797 1.875-6.5 1.875h-3.7812v7.7031h-5.7188zm5.7188 4.1406v6.2031h3.1719c1.1016 0 1.957-0.26953 2.5625-0.8125 0.60156-0.53906 0.90625-1.3047 0.90625-2.2969 0-0.98828-0.30469-1.75-0.90625-2.2812-0.60547-0.53906-1.4609-0.8125-2.5625-0.8125z"/>
  </symbol>
  <symbol id="m" overflow="visible">
   <path d="m2.5625-16.641h5.3125v16.344c0 2.2266-0.53906 3.9258-1.6094 5.0938-1.0625 1.1758-2.6094 1.7656-4.6406 1.7656h-2.6406v-3.4844h0.92188c1.0078 0 1.7031-0.23047 2.0781-0.6875 0.38281-0.46094 0.57812-1.3555 0.57812-2.6875zm0-6.4844h5.3125v4.3438h-5.3125z"/>
  </symbol>
  <symbol id="l" overflow="visible">
   <path d="m16-16.125v4.3438c-0.71875-0.5-1.4453-0.86328-2.1719-1.0938-0.73047-0.23828-1.4844-0.35938-2.2656-0.35938-1.4922 0-2.6523 0.43359-3.4844 1.2969-0.82422 0.86719-1.2344 2.0742-1.2344 3.625 0 1.5625 0.41016 2.7773 1.2344 3.6406 0.83203 0.86719 1.9922 1.2969 3.4844 1.2969 0.83203 0 1.625-0.11719 2.375-0.35938 0.75-0.25 1.4375-0.61719 2.0625-1.1094v4.3594c-0.82422 0.30469-1.668 0.53125-2.5312 0.6875-0.85547 0.15625-1.7148 0.23438-2.5781 0.23438-3 0-5.3516-0.76953-7.0469-2.3125-1.6875-1.5391-2.5312-3.6875-2.5312-6.4375 0-2.7383 0.84375-4.8789 2.5312-6.4219 1.6953-1.5391 4.0469-2.3125 7.0469-2.3125 0.875 0 1.7344 0.078125 2.5781 0.23438 0.85156 0.14844 1.6953 0.375 2.5312 0.6875z"/>
  </symbol>
 </defs>
 <g>
  <path d="m387.55 560c-5.9805 0.035156-11.766-2.1289-16.25-6.0859-5.7227-5.2617-9.0586-12.621-9.2539-20.391l-9.0078-198.74h-12.172l-7.5508 198.92c-0.19141 7.6797-3.4609 14.961-9.0664 20.211-5.1719 4.3633-11.898 6.4297-18.629 5.7227h-18.262c-7.6602-0.50391-14.785-4.1172-19.715-10.004-4.9336-5.8828-7.2422-13.531-6.3945-21.164l12.66-200.14v-133.55h-146.09c-10.871 0-20.918-5.8008-26.355-15.215-5.4375-9.418-5.4375-21.02 0-30.438 5.4375-9.4141 15.484-15.215 26.355-15.215h444.35c8.0078 0.19922 15.633 3.4688 21.297 9.1367 5.6641 5.6641 8.9336 13.289 9.1367 21.297-0.21484 8.0039-3.4922 15.621-9.1523 21.281-5.6641 5.6641-13.277 8.9375-21.281 9.1523h-152.18v133.91l14.184 199.65c0.97266 7.5898-1.1797 15.25-5.9688 21.219-4.7852 5.9688-11.797 9.7344-19.414 10.434zm-58.859-237.39h36.523l9.4336 210.49v-0.003906c0.03125 4.4727 1.8516 8.75 5.0508 11.871 2.75 2.2773 6.3203 3.3125 9.8633 2.8594h19.051c4.2344-0.60156 8.0547-2.8672 10.613-6.293 2.5586-3.4297 3.6484-7.7344 3.0234-11.965l-14.43-200.45v-146.51h164.35c4.7617-0.25 9.2617-2.2539 12.633-5.625 3.375-3.3711 5.3789-7.875 5.625-12.637-0.23438-4.7656-2.2344-9.2773-5.6094-12.652-3.375-3.3711-7.8828-5.3711-12.648-5.6094h-444.35c-4.7656 0.23828-9.2734 2.2383-12.648 5.6094-3.375 3.375-5.375 7.8867-5.6094 12.652 0.23438 4.7656 2.2344 9.2773 5.6094 12.652s7.8828 5.3711 12.648 5.6094h158.26v146.09l-12.598 200.87c-0.63672 4.3555 0.54688 8.7812 3.2773 12.238 2.7305 3.4531 6.7617 5.6328 11.148 6.0195h18.262c3.6953 0.54688 7.4531-0.49219 10.348-2.8594 3.2031-3.2305 4.9609-7.625 4.8672-12.172z"/>
  <path d="m346.96 109.57c-14.531 0-28.465-5.7734-38.738-16.047-10.273-10.273-16.043-24.207-16.043-38.738 0-14.527 5.7695-28.461 16.043-38.734s24.207-16.047 38.738-16.047c14.527 0 28.465 5.7734 38.738 16.047 10.273 10.273 16.043 24.207 16.043 38.734 0 14.531-5.7695 28.465-16.043 38.738-10.273 10.273-24.211 16.047-38.738 16.047zm0-97.391c-11.301 0-22.141 4.4883-30.129 12.477-7.9922 7.9922-12.48 18.828-12.48 30.129s4.4883 22.141 12.48 30.129c7.9883 7.9922 18.828 12.48 30.129 12.48s22.137-4.4883 30.129-12.48c7.9883-7.9883 12.48-18.828 12.48-30.129s-4.4922-22.137-12.48-30.129c-7.9922-7.9883-18.828-12.477-30.129-12.477z"/>
  <use x="97.390625" y="651.304688" xlink:href="#u"/>
  <use x="119.726563" y="651.304688" xlink:href="#b"/>
  <use x="134.734375" y="651.304688" xlink:href="#a"/>
  <use x="155.378906" y="651.304688" xlink:href="#e"/>
  <use x="175.914062" y="651.304688" xlink:href="#d"/>
  <use x="190.464844" y="651.304688" xlink:href="#a"/>
  <use x="211.105469" y="651.304688" xlink:href="#h"/>
  <use x="243.488281" y="651.304688" xlink:href="#k"/>
  <use x="265.273438" y="651.304688" xlink:href="#g"/>
  <use x="295.707031" y="651.304688" xlink:href="#j"/>
  <use x="325.992188" y="651.304688" xlink:href="#e"/>
  <use x="346.53125" y="651.304688" xlink:href="#i"/>
  <use x="366.773438" y="651.304688" xlink:href="#e"/>
  <use x="387.308594" y="651.304688" xlink:href="#b"/>
  <use x="402.320313" y="651.304688" xlink:href="#a"/>
  <use x="422.960938" y="651.304688" xlink:href="#f"/>
  <use x="444.628906" y="651.304688" xlink:href="#i"/>
  <use x="464.867188" y="651.304688" xlink:href="#c"/>
  <use x="496.371094" y="651.304688" xlink:href="#t"/>
  <use x="519.925781" y="651.304688" xlink:href="#f"/>
  <use x="541.59375" y="651.304688" xlink:href="#h"/>
  <use x="563.378906" y="651.304688" xlink:href="#b"/>
  <use x="578.390625" y="651.304688" xlink:href="#a"/>
  <use x="599.03125" y="651.304688" xlink:href="#g"/>
  <use x="97.390625" y="681.738281" xlink:href="#s"/>
  <use x="110.632812" y="681.738281" xlink:href="#b"/>
  <use x="125.640625" y="681.738281" xlink:href="#c"/>
  <use x="146.550781" y="681.738281" xlink:href="#r"/>
  <use x="188.859375" y="681.738281" xlink:href="#d"/>
  <use x="203.40625" y="681.738281" xlink:href="#q"/>
  <use x="225.074219" y="681.738281" xlink:href="#a"/>
  <use x="256.3125" y="681.738281" xlink:href="#p"/>
  <use x="281.785156" y="681.738281" xlink:href="#c"/>
  <use x="302.691406" y="681.738281" xlink:href="#o"/>
  <use x="324.359375" y="681.738281" xlink:href="#f"/>
  <use x="356.621094" y="681.738281" xlink:href="#n"/>
  <use x="378.929688" y="681.738281" xlink:href="#b"/>
  <use x="393.9375" y="681.738281" xlink:href="#c"/>
  <use x="414.847656" y="681.738281" xlink:href="#m"/>
  <use x="425.277344" y="681.738281" xlink:href="#a"/>
  <use x="445.921875" y="681.738281" xlink:href="#l"/>
  <use x="463.960938" y="681.738281" xlink:href="#d"/>
 </g>
</svg>
