<?xml version="1.0" encoding="UTF-8"?>
<svg width="700pt" height="700pt" version="1.1" viewBox="0 0 700 700" xmlns="http://www.w3.org/2000/svg" xmlns:xlink="http://www.w3.org/1999/xlink">
 <defs>
  <symbol id="e" overflow="visible">
   <path d="m28.422-1.7031c-1.4688 0.76172-3 1.3359-4.5938 1.7188-1.5859 0.38281-3.2344 0.57812-4.9531 0.57812-5.1562 0-9.2422-1.4375-12.25-4.3125-3.0117-2.875-4.5156-6.7812-4.5156-11.719s1.5039-8.8438 4.5156-11.719c3.0078-2.8828 7.0938-4.3281 12.25-4.3281 1.7188 0 3.3672 0.19531 4.9531 0.57812 1.5938 0.38672 3.125 0.96094 4.5938 1.7188v6.4062c-1.4805-1.0078-2.9375-1.75-4.375-2.2188s-2.9492-0.70312-4.5312-0.70312c-2.8438 0-5.0859 0.91406-6.7188 2.7344-1.625 1.8242-2.4375 4.3359-2.4375 7.5312 0 3.1992 0.8125 5.7109 2.4375 7.5312 1.6328 1.8242 3.875 2.7344 6.7188 2.7344 1.582 0 3.0938-0.23438 4.5312-0.70312 1.4375-0.47656 2.8945-1.2188 4.375-2.2188z"/>
  </symbol>
  <symbol id="c" overflow="visible">
   <path d="m20.797-16.875c-0.64844-0.3125-1.293-0.53516-1.9375-0.67188-0.64844-0.14453-1.293-0.21875-1.9375-0.21875-1.9062 0-3.375 0.60938-4.4062 1.8281-1.0234 1.2188-1.5312 2.9688-1.5312 5.25v10.688h-7.4219v-23.203h7.4219v3.8125c0.94531-1.5195 2.0352-2.6289 3.2656-3.3281 1.2383-0.69531 2.7227-1.0469 4.4531-1.0469 0.25 0 0.51953 0.011719 0.8125 0.03125 0.28906 0.023437 0.71094 0.070313 1.2656 0.14062z"/>
  </symbol>
  <symbol id="a" overflow="visible">
   <path d="m26.719-11.656v2.1094h-17.328c0.17578 1.7422 0.80078 3.0469 1.875 3.9219 1.082 0.86719 2.5859 1.2969 4.5156 1.2969 1.5625 0 3.1602-0.22656 4.7969-0.6875 1.6328-0.46875 3.3164-1.1719 5.0469-2.1094v5.7188c-1.75 0.65625-3.5078 1.1523-5.2656 1.4844-1.75 0.34375-3.5078 0.51562-5.2656 0.51562-4.1992 0-7.4609-1.0625-9.7812-3.1875-2.3242-2.1328-3.4844-5.1289-3.4844-8.9844 0-3.7812 1.1406-6.7539 3.4219-8.9219 2.2812-2.1758 5.4258-3.2656 9.4375-3.2656 3.6445 0 6.5625 1.1016 8.75 3.2969 2.1875 2.1992 3.2812 5.1367 3.2812 8.8125zm-7.625-2.4688c0-1.4062-0.41406-2.5391-1.2344-3.4062-0.8125-0.86328-1.8867-1.2969-3.2188-1.2969-1.4375 0-2.6055 0.40625-3.5 1.2188-0.89844 0.80469-1.4531 1.9648-1.6719 3.4844z"/>
  </symbol>
  <symbol id="j" overflow="visible">
   <path d="m13.969-10.438c-1.5547 0-2.7188 0.26562-3.5 0.79688-0.78125 0.52344-1.1719 1.293-1.1719 2.3125 0 0.9375 0.3125 1.6719 0.9375 2.2031 0.63281 0.53125 1.5078 0.79688 2.625 0.79688 1.3945 0 2.5664-0.5 3.5156-1.5 0.95703-1 1.4375-2.2539 1.4375-3.7656v-0.84375zm11.328-2.7969v13.234h-7.4844v-3.4375c-0.99219 1.4062-2.1094 2.4336-3.3594 3.0781-1.2422 0.63281-2.75 0.95312-4.5312 0.95312-2.4062 0-4.3594-0.69531-5.8594-2.0938-1.4922-1.4062-2.2344-3.2227-2.2344-5.4531 0-2.7266 0.92969-4.7266 2.7969-6 1.875-1.2695 4.8125-1.9062 8.8125-1.9062h4.375v-0.57812c0-1.1641-0.46484-2.0195-1.3906-2.5625-0.92969-0.55078-2.3711-0.82812-4.3281-0.82812-1.5859 0-3.0625 0.16406-4.4375 0.48438-1.3672 0.3125-2.6328 0.78906-3.7969 1.4219v-5.6562c1.582-0.38281 3.1758-0.67578 4.7812-0.875 1.6016-0.20703 3.2031-0.3125 4.7969-0.3125 4.1875 0 7.207 0.82812 9.0625 2.4844 1.8633 1.6484 2.7969 4.3281 2.7969 8.0469z"/>
  </symbol>
  <symbol id="b" overflow="visible">
   <path d="m11.656-29.781v6.5781h7.6562v5.3125h-7.6562v9.8281c0 1.0859 0.21094 1.8203 0.64062 2.2031 0.4375 0.375 1.2891 0.5625 2.5625 0.5625h3.7969v5.2969h-6.3594c-2.9297 0-5-0.60938-6.2188-1.8281-1.2188-1.2266-1.8281-3.3047-1.8281-6.2344v-9.8281h-3.6875v-5.3125h3.6875v-6.5781z"/>
  </symbol>
  <symbol id="i" overflow="visible">
   <path d="m19.344-19.797v-12.438h7.4531v32.234h-7.4531v-3.3594c-1.0234 1.3672-2.1484 2.3672-3.375 3-1.2305 0.63281-2.6523 0.95312-4.2656 0.95312-2.8555 0-5.2031-1.1328-7.0469-3.4062-1.8359-2.2695-2.75-5.1914-2.75-8.7656 0-3.5703 0.91406-6.4922 2.75-8.7656 1.8438-2.2812 4.1914-3.4219 7.0469-3.4219 1.6016 0 3.0195 0.32422 4.25 0.96875 1.2383 0.64844 2.3672 1.6484 3.3906 3zm-4.8906 15.016c1.5938 0 2.8047-0.57812 3.6406-1.7344 0.83203-1.1641 1.25-2.8516 1.25-5.0625 0-2.207-0.41797-3.8906-1.25-5.0469-0.83594-1.1641-2.0469-1.75-3.6406-1.75-1.5742 0-2.7773 0.58594-3.6094 1.75-0.83594 1.1562-1.25 2.8398-1.25 5.0469 0 2.2109 0.41406 3.8984 1.25 5.0625 0.83203 1.1562 2.0352 1.7344 3.6094 1.7344z"/>
  </symbol>
  <symbol id="h" overflow="visible">
   <path d="m15.906-4.7812c1.5938 0 2.8047-0.57812 3.6406-1.7344 0.83203-1.1641 1.25-2.8516 1.25-5.0625 0-2.207-0.41797-3.8906-1.25-5.0469-0.83594-1.1641-2.0469-1.75-3.6406-1.75-1.5859 0-2.8047 0.58594-3.6562 1.75-0.84375 1.168-1.2656 2.8516-1.2656 5.0469 0 2.1992 0.42188 3.8828 1.2656 5.0469 0.85156 1.168 2.0703 1.75 3.6562 1.75zm-4.9219-15.016c1.0195-1.3516 2.1484-2.3516 3.3906-3 1.2383-0.64453 2.6641-0.96875 4.2812-0.96875 2.8633 0 5.2109 1.1406 7.0469 3.4219 1.832 2.2734 2.75 5.1953 2.75 8.7656 0 3.5742-0.91797 6.4961-2.75 8.7656-1.8359 2.2734-4.1836 3.4062-7.0469 3.4062-1.6172 0-3.043-0.32031-4.2812-0.95312-1.2422-0.64453-2.3711-1.6445-3.3906-3v3.3594h-7.4219v-32.234h7.4219z"/>
  </symbol>
  <symbol id="g" overflow="visible">
   <path d="m0.51562-23.203h7.4219l6.2344 15.75 5.2969-15.75h7.4219l-9.7656 25.406c-0.98047 2.5703-2.1211 4.375-3.4219 5.4062-1.3047 1.0312-3.0273 1.5469-5.1719 1.5469h-4.2812v-4.875h2.3125c1.2578 0 2.1758-0.19922 2.75-0.59375 0.57031-0.39844 1.0156-1.1172 1.3281-2.1562l0.21875-0.64062z"/>
  </symbol>
  <symbol id="f" overflow="visible">
   <path d="m11.875-24.891v18.859h2.8594c3.25 0 5.7344-0.80469 7.4531-2.4219 1.7266-1.6133 2.5938-3.9609 2.5938-7.0469 0-3.0625-0.85938-5.3906-2.5781-6.9844-1.7109-1.6016-4.1992-2.4062-7.4688-2.4062zm-7.9844-6.0312h8.4062c4.6953 0 8.1953 0.33594 10.5 1 2.3008 0.66797 4.2695 1.8047 5.9062 3.4062 1.457 1.3984 2.5352 3.0078 3.2344 4.8281 0.70703 1.8242 1.0625 3.8867 1.0625 6.1875 0 2.3359-0.35547 4.418-1.0625 6.25-0.69922 1.8359-1.7773 3.4492-3.2344 4.8438-1.6562 1.5938-3.6484 2.7305-5.9688 3.4062-2.3125 0.66797-5.793 1-10.438 1h-8.4062z"/>
  </symbol>
  <symbol id="t" overflow="visible">
   <path d="m21.688-22.469v5.625c-1.5859-0.65625-3.1172-1.1484-4.5938-1.4844-1.4805-0.33203-2.875-0.5-4.1875-0.5-1.4062 0-2.4531 0.17969-3.1406 0.53125-0.6875 0.35547-1.0312 0.89844-1.0312 1.625 0 0.59375 0.25781 1.0547 0.78125 1.375 0.51953 0.3125 1.4453 0.54297 2.7812 0.6875l1.3125 0.1875c3.8008 0.49219 6.3516 1.2891 7.6562 2.3906 1.3125 1.1055 1.9688 2.8398 1.9688 5.2031 0 2.4688-0.91406 4.3242-2.7344 5.5625-1.8242 1.2422-4.543 1.8594-8.1562 1.8594-1.5312 0-3.1172-0.12109-4.75-0.35938-1.6367-0.23828-3.3203-0.59766-5.0469-1.0781v-5.6406c1.4766 0.71875 2.9922 1.2617 4.5469 1.625 1.5508 0.35547 3.1289 0.53125 4.7344 0.53125 1.4453 0 2.5352-0.19531 3.2656-0.59375 0.73828-0.40625 1.1094-1.0039 1.1094-1.7969 0-0.65625-0.25781-1.1445-0.76562-1.4688-0.5-0.32031-1.5078-0.57812-3.0156-0.76562l-1.2969-0.15625c-3.3047-0.41406-5.6172-1.1797-6.9375-2.2969-1.3242-1.125-1.9844-2.8281-1.9844-5.1094 0-2.457 0.83594-4.2812 2.5156-5.4688 1.6875-1.1875 4.2695-1.7812 7.75-1.7812 1.3633 0 2.7969 0.10547 4.2969 0.3125 1.5078 0.21094 3.1484 0.53906 4.9219 0.98438z"/>
  </symbol>
  <symbol id="d" overflow="visible">
   <path d="m3.5625-23.203h7.4219v23.203h-7.4219zm0-9.0312h7.4219v6.0469h-7.4219z"/>
  </symbol>
  <symbol id="s" overflow="visible">
   <path d="m19.344-3.9375c-1.0234 1.3555-2.1484 2.3516-3.375 2.9844-1.2305 0.63672-2.6523 0.95312-4.2656 0.95312-2.8359 0-5.1797-1.1133-7.0312-3.3438-1.8438-2.2266-2.7656-5.0703-2.7656-8.5312 0-3.457 0.92188-6.2969 2.7656-8.5156 1.8516-2.2188 4.1953-3.3281 7.0312-3.3281 1.6133 0 3.0352 0.32031 4.2656 0.95312 1.2266 0.63672 2.3516 1.6367 3.375 3v-3.4375h7.4531v20.859c0 3.7266-1.1797 6.5781-3.5312 8.5469-2.3555 1.9688-5.7656 2.9531-10.234 2.9531-1.4492 0-2.8516-0.10938-4.2031-0.32812-1.3555-0.21875-2.7148-0.55859-4.0781-1.0156v-5.7812c1.2891 0.75 2.5547 1.3047 3.7969 1.6719 1.25 0.36328 2.5 0.54688 3.75 0.54688 2.4375 0 4.2188-0.53125 5.3438-1.5938 1.1328-1.0625 1.7031-2.7266 1.7031-5zm-4.8906-14.438c-1.5312 0-2.7266 0.57031-3.5781 1.7031-0.85547 1.1367-1.2812 2.7344-1.2812 4.7969 0 2.1367 0.41016 3.75 1.2344 4.8438 0.83203 1.0938 2.0391 1.6406 3.625 1.6406 1.5508 0 2.7539-0.5625 3.6094-1.6875 0.85156-1.1328 1.2812-2.7344 1.2812-4.7969s-0.42969-3.6602-1.2812-4.7969c-0.85547-1.1328-2.0586-1.7031-3.6094-1.7031z"/>
  </symbol>
  <symbol id="r" overflow="visible">
   <path d="m26.891-14.125v14.125h-7.4688v-10.812c0-2-0.046875-3.3789-0.14062-4.1406-0.085938-0.75781-0.23438-1.3203-0.45312-1.6875-0.29297-0.47656-0.6875-0.85156-1.1875-1.125-0.49219-0.26953-1.0547-0.40625-1.6875-0.40625-1.5547 0-2.7734 0.60156-3.6562 1.7969-0.875 1.1992-1.3125 2.8555-1.3125 4.9688v11.406h-7.4219v-23.203h7.4219v3.4062c1.1133-1.3516 2.2969-2.3516 3.5469-3 1.2578-0.64453 2.6484-0.96875 4.1719-0.96875 2.6758 0 4.707 0.82422 6.0938 2.4688 1.3945 1.6484 2.0938 4.0391 2.0938 7.1719z"/>
  </symbol>
  <symbol id="q" overflow="visible">
   <path d="m22.312-22.469v6.0469c-1.0117-0.69531-2.0273-1.207-3.0469-1.5312-1.0117-0.33203-2.0625-0.5-3.1562-0.5-2.0625 0-3.6719 0.60547-4.8281 1.8125-1.1562 1.2109-1.7344 2.8984-1.7344 5.0625 0 2.168 0.57812 3.8555 1.7344 5.0625 1.1562 1.2109 2.7656 1.8125 4.8281 1.8125 1.1641 0 2.2695-0.17188 3.3125-0.51562 1.0391-0.34375 2.0039-0.85156 2.8906-1.5312v6.0625c-1.168 0.42969-2.3516 0.74219-3.5469 0.95312-1.1875 0.21875-2.3828 0.32812-3.5781 0.32812-4.1875 0-7.4648-1.0703-9.8281-3.2188-2.3555-2.1445-3.5312-5.1289-3.5312-8.9531 0-3.8203 1.1758-6.8047 3.5312-8.9531 2.3633-2.1562 5.6406-3.2344 9.8281-3.2344 1.207 0 2.3984 0.10938 3.5781 0.32812 1.1875 0.21875 2.3672 0.54297 3.5469 0.96875z"/>
  </symbol>
  <symbol id="p" overflow="visible">
   <path d="m3.5625-32.234h7.4219v32.234h-7.4219z"/>
  </symbol>
  <symbol id="o" overflow="visible">
   <path d="m18.828-32.234v4.875h-4.0938c-1.0547 0-1.7891 0.19531-2.2031 0.57812-0.41797 0.375-0.625 1.0312-0.625 1.9688v1.6094h6.3438v5.3125h-6.3438v17.891h-7.4062v-17.891h-3.6875v-5.3125h3.6875v-1.6094c0-2.5312 0.70312-4.3984 2.1094-5.6094 1.4062-1.207 3.5859-1.8125 6.5469-1.8125z"/>
  </symbol>
  <symbol id="n" overflow="visible">
   <path d="m26.891-14.125v14.125h-7.4688v-10.766c0-2.0312-0.046875-3.4258-0.14062-4.1875-0.085938-0.75781-0.23438-1.3203-0.45312-1.6875-0.29297-0.47656-0.6875-0.85156-1.1875-1.125-0.49219-0.26953-1.0547-0.40625-1.6875-0.40625-1.5547 0-2.7734 0.60156-3.6562 1.7969-0.875 1.1992-1.3125 2.8555-1.3125 4.9688v11.406h-7.4219v-32.234h7.4219v12.438c1.1133-1.3516 2.2969-2.3516 3.5469-3 1.2578-0.64453 2.6484-0.96875 4.1719-0.96875 2.6758 0 4.707 0.82422 6.0938 2.4688 1.3945 1.6484 2.0938 4.0391 2.0938 7.1719z"/>
  </symbol>
  <symbol id="m" overflow="visible">
   <path d="m3.8906-30.922h8.9062l11.25 21.203v-21.203h7.5625v30.922h-8.9062l-11.25-21.219v21.219h-7.5625z"/>
  </symbol>
  <symbol id="l" overflow="visible">
   <path d="m3.8906-30.922h13.234c3.9375 0 6.957 0.875 9.0625 2.625 2.1016 1.7422 3.1562 4.2266 3.1562 7.4531 0 3.25-1.0547 5.75-3.1562 7.5-2.1055 1.7422-5.125 2.6094-9.0625 2.6094h-5.25v10.734h-7.9844zm7.9844 5.7812v8.625h4.4062c1.5391 0 2.7344-0.375 3.5781-1.125s1.2656-1.8164 1.2656-3.2031c0-1.375-0.42188-2.4297-1.2656-3.1719-0.84375-0.75-2.0391-1.125-3.5781-1.125z"/>
  </symbol>
  <symbol id="k" overflow="visible">
   <path d="m3.5625-23.203h7.4219v22.781c0 3.1133-0.75 5.4883-2.25 7.125-1.4922 1.6328-3.6523 2.4531-6.4844 2.4531h-3.6562v-4.875h1.2812c1.4062 0 2.3672-0.32031 2.8906-0.95312 0.53125-0.63672 0.79688-1.8867 0.79688-3.75zm0-9.0312h7.4219v6.0469h-7.4219z"/>
  </symbol>
 </defs>
 <g>
  <path d="m432.13 315.98c-24.098 0-43.695-22.91-43.695-51.078 0-3.4805-2.8867-6.3633-6.3633-6.3633-3.4805 0-6.3633 2.8867-6.3633 6.3633 0 35.211 25.285 63.805 56.426 63.805 3.4805 0 6.3633-2.8867 6.3633-6.3633-0.003906-3.4805-2.8047-6.3633-6.3672-6.3633z"/>
  <path d="m405.57 371.21c-10.777 0-19.516-6.7031-19.516-15.02 0-3.4805-2.8867-6.3633-6.3633-6.3633-3.4805 0-6.3633 2.8867-6.3633 6.3633 0 15.273 14.508 27.746 32.242 27.746 3.4805 0 6.3633-2.8867 6.3633-6.3633 0-3.4766-2.8828-6.3633-6.3633-6.3633z"/>
  <path d="m324.29 264.9c0-3.4805-2.8867-6.3633-6.3633-6.3633-3.4805 0-6.3633 2.8867-6.3633 6.3633 0 28.168-19.602 51.078-43.695 51.078-3.4805 0-6.3633 2.8867-6.3633 6.3633 0 3.4805 2.8867 6.3633 6.3633 6.3633 31.055 0 56.422-28.594 56.422-63.805z"/>
  <path d="m320.3 349.91c-3.4805 0-6.3633 2.8867-6.3633 6.3633 0 8.2305-8.7383 15.02-19.516 15.02-3.4805 0-6.3633 2.8867-6.3633 6.3633 0 3.4805 2.8867 6.3633 6.3633 6.3633 17.816 0 32.242-12.387 32.242-27.746 0-3.5625-2.8008-6.3633-6.3633-6.3633z"/>
  <path d="m618.97 266.51c-9.5039-59.988-67.711-109.54-70.168-111.66-0.25391-0.16797-0.50781-0.42578-0.76172-0.59375l-27.066-16.461c-1.5273-0.93359-3.3945-1.1875-5.1758-0.67969l-24.52 7.3828c-1.1016 0.33984-2.0352 0.93359-2.8008 1.7812-0.76172 0.84766-18.496 20.363-6.957 41.066 3.9023 6.957 8.9922 11.453 15.273 13.152 6.7031 1.8672 12.641 0 15.527-1.1875 9.0781-0.085938 16.461-2.207 21.129-4.0742 4.4141 7.5508 5.1758 17.055 4.9219 24.438-14.934-6.1094-32.922-4.582-46.582 4.0742-9.0781-12.305-23.504-19.77-39.199-19.77-11.539 0-22.398 3.9883-31.141 11.199-16.715-5.6016-28.426-22.656-28.426-41.832 0-3.3086 1.0195-6.1094 2.8008-7.8047 4.582-4.4141 7.2109-10.52 7.2109-16.887v-15.359c0-2.8008-1.1875-5.6016-3.2227-7.4648-1.2734-1.2734-2.8008-2.0352-4.4961-2.4609v-7.5508c0-12.727-5.4297-24.859-14.848-33.43-9.418-8.5703-22.145-12.727-34.789-11.539-22.062 2.1211-40.641 23.504-40.641 46.668v5.8555c-1.6953 0.42578-3.2227 1.2734-4.4961 2.4609-2.0352 1.9531-3.2227 4.668-3.2227 7.4648v14.68c0 6.8711 2.375 12.898 6.7031 17.055 2.1211 2.0352 3.3086 4.8359 3.3086 8.4844 0 18.922-11.711 36.062-28.426 41.66-0.33984-0.25391-0.67969-0.42578-1.0195-0.67969-0.33984-0.25391-0.67969-0.59375-1.0195-0.84766v0.16797c-8.3984-6.2773-18.414-9.7578-29.102-9.7578-15.695 0-30.121 7.3828-39.199 19.77-13.66-8.6562-31.562-10.184-46.582-4.0742-0.33984-7.8047 0.50781-17.055 4.9219-24.52 4.668 1.7812 12.047 3.9023 21.129 4.0742 2.8867 1.2734 8.8242 3.1406 15.527 1.1875 6.2773-1.7812 11.371-6.1953 15.273-13.152 11.539-20.789-6.2773-40.305-7.043-41.066-0.76172-0.84766-1.7812-1.4414-2.8008-1.7812l-24.438-7.3828c-1.6953-0.50781-3.5625-0.25391-5.1758 0.67969l-27.066 16.461c-0.25391 0.16797-0.50781 0.33984-0.76172 0.59375-2.4609 2.1211-60.75 51.758-70.168 111.49-0.25391 1.1875-2.375 12.219 4.4961 20.195 4.2422 5.0078 10.945 7.5508 19.09 7.2109 9.8438 3.4805 72.461 24.605 114.55 9.6719 4.0742 9.1641 12.98 26.641 26.305 38.605 3.3945 3.1406 6.7031 7.6367 9.7578 13.574 8.9922 17.309 11.031 37.758 5.7695 57.613-2.7148 10.012-3.9023 16.715-4.1562 21.551h-0.52344c-3.4805 0-6.2773 2.8008-6.3633 6.2773l-0.59375 41.832c-0.085938 3.4805 2.8008 6.3633 6.2773 6.4492 3.5625 0 6.3633-2.7148 6.4492-6.2773l0.50781-35.551h174.7v35.465c0 3.4805 2.8867 6.3633 6.3633 6.3633 3.4805 0 6.3633-2.8867 6.3633-6.3633v-41.832c0-3.4805-2.8867-6.3633-6.3633-6.3633h-0.93359c-0.25391-4.75-1.4414-11.453-4.0742-21.383-5.3438-19.938-3.3086-40.473 5.7695-57.781 3.0547-5.8555 6.3633-10.438 9.7578-13.492 13.32-12.047 22.316-29.441 26.387-38.605 42.168 14.934 104.7-6.1953 114.46-9.6719 8.5703 0.25391 14.848-2.207 19.09-7.2109 6.5391-7.8047 4.8398-18.242 4.5-20.109zm-14.254 11.797c-1.7812 2.0352-5.1758 2.9688-10.098 2.7148-0.84766-0.085937-1.7812 0.085938-2.5469 0.42578-0.67969 0.25391-72.375 26.559-112.09 8.0625-1.6133-0.76172-3.4805-0.76172-5.0898-0.085937-1.6133 0.67969-2.9688 2.0352-3.5625 3.7344-0.085937 0.25391-9.332 25.199-25.453 39.625-4.4961 4.0742-8.7383 9.8438-12.473 17.055-10.605 20.195-12.98 43.953-6.7891 67.031 2.5469 9.5859 3.4805 15.02 3.7344 18.074l-160.7-0.007812c0.25391-3.0547 1.1016-8.4844 3.7344-18.242 6.1094-22.91 3.7344-46.668-6.7891-66.777-3.7344-7.2109-7.9766-12.98-12.559-17.141-16.035-14.426-25.371-39.371-25.453-39.625-0.59375-1.6953-1.8672-3.0547-3.5625-3.7344-1.6133-0.67969-3.4805-0.67969-5.0898 0.085938-39.625 18.496-111.41-7.7227-112.09-8.0625-0.84766-0.33984-1.7812-0.42578-2.5469-0.42578-4.8359 0.25391-8.2305-0.67969-10.012-2.7148-2.375-2.8008-2.1211-7.7227-1.6953-9.6719 8.3984-53.031 60.668-99.613 65.504-103.77l24.184-14.762 19.938 6.0234c2.8008 3.6484 10.098 14.508 4.2422 25.031-5.6836 10.266-12.98 7.2969-15.02 6.1953-1.0195-0.59375-2.207-0.84766-3.3086-0.84766-12.898 0.16797-21.383-4.75-21.465-4.75-2.6289-1.5273-6.0234-0.93359-7.9766 1.3594-12.559 14.508-11.453 36.062-9.6719 47.516 0.33984 2.1211 1.6953 3.9883 3.7344 4.8359 1.9531 0.84766 4.2422 0.67969 6.1094-0.50781 14-9.1641 33.09-8.0625 45.734 2.4609 8.5703 7.043 14.086 17.648 14.086 29.613 0 3.4805 2.8867 6.3633 6.3633 6.3633 3.4805 0 6.3633-2.8867 6.3633-6.3633 0-13.66-5.4297-26.047-14.168-35.211 6.6172-9.418 17.562-15.188 29.359-15.188 9.418 0 18.328 3.5625 25.031 10.098 0.16797 0.16797 0.33984 0.16797 0.50781 0.33984 0 0.085938 0 0.085938-0.085938 0.16797 6.5352 6.5352 10.52 15.527 10.52 25.453 0 3.4805 2.8867 6.3633 6.3633 6.3633 3.4805 0 6.3633-2.8867 6.3633-6.3633 0-10.266-3.2227-19.684-8.6562-27.574 19.43-8.8242 32.156-28.848 32.156-52.352 0-6.3633-2.6289-12.559-7.2109-16.887-1.7812-1.6953-2.7148-4.4961-2.7148-7.8047v-12.473c1.6953-0.42578 3.3086-1.2734 4.582-2.5469 2.0352-1.9531 3.1406-4.582 3.1406-7.3828v-8.1445c0-16.629 13.66-32.496 29.188-34.023 9.332-0.84766 18.156 2.0352 25.031 8.2305 6.7891 6.1094 10.691 14.934 10.691 24.012v9.8438c0 2.8008 1.1016 5.4297 3.1406 7.3828 1.2734 1.1875 2.8867 2.1211 4.582 2.5469v13.152c0 2.8867-1.1875 5.6836-3.3086 7.7227-4.3281 4.1562-6.7031 10.184-6.7031 17.223 0 22.824 12.727 42.762 32.156 51.586-5.4297 7.8906-8.6562 17.309-8.6562 27.574 0 3.4805 2.8867 6.3633 6.3633 6.3633 3.4805 0 6.3633-2.8867 6.3633-6.3633 0-9.6719 3.9023-18.496 10.184-24.945-0.085938-0.085938-0.16797-0.16797-0.33984-0.25391 0.42578-0.25391 0.84766-0.33984 1.1875-0.67969 6.7031-6.5352 15.613-10.098 25.031-10.098 11.793 0 22.656 5.6836 29.359 15.188-8.7383 9.1641-14.168 21.551-14.168 35.211 0 3.4805 2.8867 6.3633 6.3633 6.3633 3.4805 0 6.3633-2.8867 6.3633-6.3633 0-11.711 5.3438-21.977 13.574-29.102-0.085938 0-0.085938-0.085938-0.16797-0.085938 0.085937-0.085937 0.16797-0.085937 0.25391-0.16797 12.641-10.777 32.156-11.965 46.074-2.8008 1.7812 1.1875 4.0742 1.4414 6.0234 0.50781 1.9531-0.84766 3.3945-2.6289 3.7344-4.8359 1.8672-11.453 3.1406-32.922-9.5859-47.602-1.9531-2.2891-5.3438-2.8867-7.9766-1.3594-0.085937 0.085937-8.8242 4.8359-21.465 4.75-1.1875-0.16797-2.2891 0.25391-3.2227 0.84766-2.1211 1.1016-9.418 4.0742-15.102-6.1953-5.8555-10.52 1.3594-21.465 4.1562-25.031l20.023-6.0234 24.184 14.762c4.8359 4.1562 57.102 50.738 65.504 103.77 0 0.085938 0 0.16797 0.085937 0.25391 0.23438 1.7031 0.57422 6.625-1.8008 9.4258z"/>
  <path d="m350 231.13c-3.4805 0-6.3633 2.8867-6.3633 6.3633v125.15c0 3.4805 2.8867 6.3633 6.3633 6.3633 3.4805 0 6.3633-2.8867 6.3633-6.3633v-125.15c0-3.5664-2.8828-6.3633-6.3633-6.3633z"/>
  <use x="70" y="687.273438" xlink:href="#e"/>
  <use x="101.132813" y="687.273438" xlink:href="#c"/>
  <use x="122.058594" y="687.273438" xlink:href="#a"/>
  <use x="150.828125" y="687.273438" xlink:href="#j"/>
  <use x="179.457031" y="687.273438" xlink:href="#b"/>
  <use x="199.738281" y="687.273438" xlink:href="#a"/>
  <use x="228.511719" y="687.273438" xlink:href="#i"/>
  <use x="273.648438" y="687.273438" xlink:href="#h"/>
  <use x="304.015625" y="687.273438" xlink:href="#g"/>
  <use x="346.441406" y="687.273438" xlink:href="#f"/>
  <use x="381.65625" y="687.273438" xlink:href="#a"/>
  <use x="410.429688" y="687.273438" xlink:href="#t"/>
  <use x="435.679688" y="687.273438" xlink:href="#d"/>
  <use x="450.222656" y="687.273438" xlink:href="#s"/>
  <use x="480.589844" y="687.273438" xlink:href="#r"/>
  <use x="525.5625" y="687.273438" xlink:href="#e"/>
  <use x="556.699219" y="687.273438" xlink:href="#d"/>
  <use x="571.238281" y="687.273438" xlink:href="#c"/>
  <use x="592.160156" y="687.273438" xlink:href="#q"/>
  <use x="617.308594" y="687.273438" xlink:href="#p"/>
  <use x="631.851562" y="687.273438" xlink:href="#a"/>
  <use x="70" y="729.695312" xlink:href="#o"/>
  <use x="197.5" y="729.695312" xlink:href="#b"/>
  <use x="217.78125" y="729.695312" xlink:href="#n"/>
  <use x="291.527344" y="729.695312" xlink:href="#m"/>
  <use x="431.351563" y="729.695312" xlink:href="#l"/>
  <use x="512.511719" y="729.695312" xlink:href="#k"/>
  <use x="580.976562" y="729.695312" xlink:href="#b"/>
 </g>
</svg>
