<?xml version="1.0" encoding="UTF-8"?>
<svg width="700pt" height="700pt" version="1.1" viewBox="0 0 700 700" xmlns="http://www.w3.org/2000/svg" xmlns:xlink="http://www.w3.org/1999/xlink">
 <defs>
  <symbol id="g" overflow="visible">
   <path d="m26.797-1.6094c-1.375 0.71875-2.8125 1.2617-4.3125 1.625s-3.0625 0.54688-4.6875 0.54688c-4.8555 0-8.7031-1.3516-11.547-4.0625-2.8359-2.7188-4.25-6.3984-4.25-11.047 0-4.6641 1.4141-8.3516 4.25-11.062 2.8438-2.7188 6.6914-4.0781 11.547-4.0781 1.625 0 3.1875 0.18359 4.6875 0.54688 1.5 0.36719 2.9375 0.90625 4.3125 1.625v6.0312c-1.3984-0.94531-2.7734-1.6406-4.125-2.0781-1.3555-0.44531-2.7773-0.67188-4.2656-0.67188-2.6875 0-4.8047 0.85938-6.3438 2.5781-1.5312 1.7188-2.2969 4.0898-2.2969 7.1094 0 3 0.76562 5.3594 2.2969 7.0781 1.5391 1.7188 3.6562 2.5781 6.3438 2.5781 1.4883 0 2.9102-0.21875 4.2656-0.65625 1.3516-0.44531 2.7266-1.1445 4.125-2.0938z"/>
  </symbol>
  <symbol id="c" overflow="visible">
   <path d="m19.609-15.922c-0.61719-0.28125-1.2266-0.48828-1.8281-0.625-0.60547-0.14453-1.2148-0.21875-1.8281-0.21875-1.793 0-3.1719 0.57812-4.1406 1.7344s-1.4531 2.8086-1.4531 4.9531v10.078h-7v-21.875h7v3.5938c0.89453-1.4375 1.9258-2.4844 3.0938-3.1406 1.1641-0.65625 2.5625-0.98438 4.1875-0.98438 0.22656 0 0.47656 0.011719 0.75 0.03125 0.28125 0.023438 0.67969 0.0625 1.2031 0.125z"/>
  </symbol>
  <symbol id="a" overflow="visible">
   <path d="m25.203-11v2h-16.359c0.17578 1.6367 0.76953 2.8672 1.7812 3.6875 1.0195 0.82422 2.4414 1.2344 4.2656 1.2344 1.4688 0 2.9727-0.21875 4.5156-0.65625 1.5391-0.4375 3.125-1.0977 4.75-1.9844v5.3906c-1.6484 0.625-3.2969 1.0938-4.9531 1.4062-1.6562 0.32031-3.3125 0.48438-4.9688 0.48438-3.9609 0-7.0391-1.0039-9.2344-3.0156-2.1875-2.0078-3.2812-4.832-3.2812-8.4688 0-3.5625 1.0781-6.3633 3.2344-8.4062 2.1562-2.0508 5.1172-3.0781 8.8906-3.0781 3.4375 0 6.1875 1.0391 8.25 3.1094 2.0703 2.0742 3.1094 4.8398 3.1094 8.2969zm-7.1875-2.3281c0-1.3203-0.39062-2.3906-1.1719-3.2031-0.77344-0.8125-1.7812-1.2188-3.0312-1.2188-1.3555 0-2.4609 0.38281-3.3125 1.1406-0.84375 0.76172-1.3711 1.8555-1.5781 3.2812z"/>
  </symbol>
  <symbol id="e" overflow="visible">
   <path d="m13.172-9.8438c-1.4609 0-2.5586 0.25-3.2969 0.75-0.74219 0.49219-1.1094 1.2148-1.1094 2.1719 0 0.88672 0.29688 1.5859 0.89062 2.0938 0.59375 0.5 1.4141 0.75 2.4688 0.75 1.3203 0 2.4297-0.47266 3.3281-1.4219 0.89453-0.94531 1.3438-2.1289 1.3438-3.5469v-0.79688zm10.672-2.6406v12.484h-7.0469v-3.25c-0.9375 1.3359-1.9961 2.3047-3.1719 2.9062-1.168 0.60156-2.5898 0.90625-4.2656 0.90625-2.2734 0-4.1172-0.66016-5.5312-1.9844-1.4062-1.3203-2.1094-3.0352-2.1094-5.1406 0-2.5625 0.87891-4.4414 2.6406-5.6406 1.7695-1.1953 4.5391-1.7969 8.3125-1.7969h4.125v-0.54688c0-1.1133-0.4375-1.9258-1.3125-2.4375-0.86719-0.50781-2.2266-0.76562-4.0781-0.76562-1.5 0-2.8984 0.15234-4.1875 0.45312-1.2812 0.29297-2.4766 0.74219-3.5781 1.3438v-5.3438c1.4883-0.36328 2.9883-0.64062 4.5-0.82812 1.5078-0.1875 3.0195-0.28125 4.5312-0.28125 3.9453 0 6.7969 0.78125 8.5469 2.3438 1.75 1.5547 2.625 4.0781 2.625 7.5781z"/>
  </symbol>
  <symbol id="d" overflow="visible">
   <path d="m11-28.094v6.2188h7.2031v5h-7.2031v9.2812c0 1.0117 0.19531 1.6992 0.59375 2.0625 0.40625 0.35547 1.207 0.53125 2.4062 0.53125h3.5938v5h-5.9844c-2.7617 0-4.7188-0.57031-5.875-1.7188-1.1562-1.1562-1.7344-3.1133-1.7344-5.875v-9.2812h-3.4688v-5h3.4688v-6.2188z"/>
  </symbol>
  <symbol id="k" overflow="visible">
   <path d="m18.25-18.672v-11.719h7.0312v30.391h-7.0312v-3.1719c-0.96875 1.293-2.0312 2.2422-3.1875 2.8438-1.1562 0.59375-2.5 0.89062-4.0312 0.89062-2.6875 0-4.9023-1.0664-6.6406-3.2031-1.7305-2.1445-2.5938-4.9062-2.5938-8.2812s0.86328-6.1289 2.5938-8.2656c1.7383-2.1445 3.9531-3.2188 6.6406-3.2188 1.5078 0 2.8477 0.30469 4.0156 0.90625 1.1641 0.60547 2.2344 1.5469 3.2031 2.8281zm-4.6094 14.156c1.4883 0 2.6289-0.54688 3.4219-1.6406 0.78906-1.0938 1.1875-2.6797 1.1875-4.7656 0-2.082-0.39844-3.6719-1.1875-4.7656-0.79297-1.0938-1.9336-1.6406-3.4219-1.6406-1.4922 0-2.6328 0.54688-3.4219 1.6406-0.78125 1.0938-1.1719 2.6836-1.1719 4.7656 0 2.0859 0.39062 3.6719 1.1719 4.7656 0.78906 1.0938 1.9297 1.6406 3.4219 1.6406z"/>
  </symbol>
  <symbol id="j" overflow="visible">
   <path d="m15-4.5156c1.5 0 2.6406-0.54688 3.4219-1.6406 0.78906-1.0938 1.1875-2.6797 1.1875-4.7656 0-2.082-0.39844-3.6719-1.1875-4.7656-0.78125-1.0938-1.9219-1.6406-3.4219-1.6406s-2.6523 0.55469-3.4531 1.6562c-0.79297 1.0938-1.1875 2.6797-1.1875 4.75 0 2.0742 0.39453 3.6641 1.1875 4.7656 0.80078 1.0938 1.9531 1.6406 3.4531 1.6406zm-4.6406-14.156c0.95703-1.2812 2.0195-2.2227 3.1875-2.8281 1.1758-0.60156 2.5234-0.90625 4.0469-0.90625 2.6953 0 4.9102 1.0742 6.6406 3.2188 1.7383 2.1367 2.6094 4.8906 2.6094 8.2656s-0.87109 6.1367-2.6094 8.2812c-1.7305 2.1367-3.9453 3.2031-6.6406 3.2031-1.5234 0-2.8711-0.30469-4.0469-0.90625-1.168-0.60156-2.2305-1.5469-3.1875-2.8281v3.1719h-7v-30.391h7z"/>
  </symbol>
  <symbol id="i" overflow="visible">
   <path d="m0.48438-21.875h7l5.875 14.844 5-14.844h7l-9.2031 23.953c-0.92969 2.4258-2.0078 4.125-3.2344 5.0938-1.2305 0.97656-2.8555 1.4688-4.875 1.4688h-4.0469v-4.5938h2.1875c1.1875 0 2.0508-0.19531 2.5938-0.57812 0.53906-0.375 0.96094-1.0469 1.2656-2.0156l0.1875-0.60938z"/>
  </symbol>
  <symbol id="h" overflow="visible">
   <path d="m3.6719-29.156h7.5156v26.328c0 3.6328-0.98438 6.3477-2.9531 8.1406-1.9688 1.8008-4.9531 2.7031-8.9531 2.7031h-1.5312v-5.6875h1.1719c1.5625 0 2.7422-0.4375 3.5469-1.3125 0.80078-0.875 1.2031-2.1562 1.2031-3.8438z"/>
  </symbol>
  <symbol id="f" overflow="visible">
   <path d="m23.641-18.25c0.88281-1.3516 1.9297-2.3828 3.1406-3.0938 1.2188-0.70703 2.5547-1.0625 4.0156-1.0625 2.5195 0 4.4375 0.77734 5.75 2.3281 1.3125 1.5547 1.9688 3.8047 1.9688 6.75v13.328h-7.0312v-11.406c0.007813-0.16406 0.019531-0.33594 0.03125-0.51562 0.007813-0.1875 0.015625-0.45312 0.015625-0.79688 0-1.5508-0.23047-2.6719-0.6875-3.3594-0.46094-0.69531-1.1953-1.0469-2.2031-1.0469-1.3359 0-2.3672 0.54688-3.0938 1.6406-0.71875 1.0938-1.0898 2.6719-1.1094 4.7344v10.75h-7.0312v-11.406c0-2.4258-0.21094-3.9844-0.625-4.6719-0.41797-0.69531-1.1641-1.0469-2.2344-1.0469-1.3359 0-2.3672 0.55469-3.0938 1.6562-0.73047 1.0938-1.0938 2.6641-1.0938 4.7031v10.766h-7.0312v-21.875h7.0312v3.2031c0.85156-1.2383 1.8359-2.1719 2.9531-2.7969 1.1133-0.625 2.3438-0.9375 3.6875-0.9375 1.5078 0 2.8438 0.36719 4 1.0938 1.1562 0.73047 2.0352 1.75 2.6406 3.0625z"/>
  </symbol>
  <symbol id="v" overflow="visible">
   <path d="m3.3594-21.875h7v21.875h-7zm0-8.5156h7v5.7031h-7z"/>
  </symbol>
  <symbol id="b" overflow="visible">
   <path d="m13.766-17.406c-1.543 0-2.7266 0.55859-3.5469 1.6719-0.8125 1.1172-1.2188 2.7188-1.2188 4.8125s0.40625 3.6992 1.2188 4.8125c0.82031 1.1172 2.0039 1.6719 3.5469 1.6719 1.5312 0 2.6953-0.55469 3.5-1.6719 0.8125-1.1133 1.2188-2.7188 1.2188-4.8125s-0.40625-3.6953-1.2188-4.8125c-0.80469-1.1133-1.9688-1.6719-3.5-1.6719zm0-5c3.7695 0 6.7109 1.0156 8.8281 3.0469 2.1133 2.0312 3.1719 4.8438 3.1719 8.4375s-1.0586 6.4062-3.1719 8.4375c-2.1172 2.0312-5.0586 3.0469-8.8281 3.0469-3.7734 0-6.7266-1.0156-8.8594-3.0469-2.125-2.0312-3.1875-4.8438-3.1875-8.4375s1.0625-6.4062 3.1875-8.4375c2.1328-2.0312 5.0859-3.0469 8.8594-3.0469z"/>
  </symbol>
  <symbol id="u" overflow="visible">
   <path d="m3.3594-30.391h7v16.547l8.0469-8.0312h8.125l-10.688 10.031 11.516 11.844h-8.4688l-8.5312-9.125v9.125h-7z"/>
  </symbol>
  <symbol id="t" overflow="visible">
   <path d="m20.453-21.188v5.3125c-1.5-0.625-2.9492-1.0938-4.3438-1.4062-1.3867-0.3125-2.6992-0.46875-3.9375-0.46875-1.3359 0-2.3242 0.16797-2.9688 0.5-0.63672 0.32422-0.95312 0.83594-0.95312 1.5312 0 0.55469 0.23828 0.98047 0.71875 1.2812 0.48828 0.30469 1.3672 0.52734 2.6406 0.67188l1.2188 0.17188c3.582 0.46094 5.9922 1.2109 7.2344 2.25 1.2383 1.043 1.8594 2.6719 1.8594 4.8906 0 2.3359-0.85938 4.0898-2.5781 5.2656-1.7188 1.168-4.2891 1.75-7.7031 1.75-1.4492 0-2.9453-0.11719-4.4844-0.34375-1.543-0.22656-3.125-0.56641-4.75-1.0156v-5.3125c1.3945 0.67969 2.8203 1.1875 4.2812 1.5312 1.4688 0.33594 2.957 0.5 4.4688 0.5 1.3633 0 2.3906-0.1875 3.0781-0.5625 0.69531-0.38281 1.0469-0.94531 1.0469-1.6875 0-0.625-0.24219-1.0859-0.71875-1.3906-0.48047-0.3125-1.4297-0.55078-2.8438-0.71875l-1.2344-0.15625c-3.1055-0.39453-5.2812-1.1172-6.5312-2.1719-1.25-1.0508-1.875-2.6484-1.875-4.7969 0-2.3203 0.78906-4.0391 2.375-5.1562 1.5938-1.125 4.0312-1.6875 7.3125-1.6875 1.2812 0 2.6289 0.10156 4.0469 0.29688 1.4258 0.19922 2.9727 0.50781 4.6406 0.92188z"/>
  </symbol>
  <symbol id="s" overflow="visible">
   <path d="m17.75-30.391v4.5938h-3.8594c-0.99219 0-1.6836 0.17969-2.0781 0.53125-0.38672 0.35547-0.57812 0.97656-0.57812 1.8594v1.5312h5.9688v5h-5.9688v16.875h-7v-16.875h-3.4688v-5h3.4688v-1.5312c0-2.375 0.66016-4.1289 1.9844-5.2656 1.332-1.1445 3.3945-1.7188 6.1875-1.7188z"/>
  </symbol>
  <symbol id="r" overflow="visible">
   <path d="m25.359-13.328v13.328h-7.0312v-10.156c0-1.9141-0.046875-3.2266-0.14062-3.9375-0.085938-0.71875-0.23047-1.25-0.4375-1.5938-0.27344-0.45703-0.64062-0.8125-1.1094-1.0625s-1-0.375-1.5938-0.375c-1.4609 0-2.6055 0.5625-3.4375 1.6875-0.83594 1.125-1.25 2.6836-1.25 4.6719v10.766h-7v-30.391h7v11.719c1.0508-1.2812 2.1641-2.2227 3.3438-2.8281 1.1875-0.60156 2.5-0.90625 3.9375-0.90625 2.5195 0 4.4375 0.77734 5.75 2.3281 1.3125 1.5547 1.9688 3.8047 1.9688 6.75z"/>
  </symbol>
  <symbol id="q" overflow="visible">
   <path d="m3.6719-29.156h8.4062l10.594 20v-20h7.1406v29.156h-8.4062l-10.609-20v20h-7.125z"/>
  </symbol>
  <symbol id="p" overflow="visible">
   <path d="m3.125-8.5156v-13.359h7.0312v2.1875c0 1.1875-0.007812 2.6797-0.015625 4.4688-0.011719 1.7812-0.015625 2.9766-0.015625 3.5781 0 1.7617 0.039062 3.0273 0.125 3.7969 0.09375 0.77344 0.25 1.3359 0.46875 1.6875 0.28906 0.46094 0.66406 0.8125 1.125 1.0625 0.46875 0.24219 1 0.35938 1.5938 0.35938 1.457 0 2.6016-0.55469 3.4375-1.6719 0.83203-1.125 1.25-2.6797 1.25-4.6719v-10.797h7v21.875h-7v-3.1719c-1.0547 1.2812-2.168 2.2266-3.3438 2.8281-1.1797 0.60156-2.4805 0.90625-3.9062 0.90625-2.5234 0-4.4453-0.76953-5.7656-2.3125-1.3242-1.5508-1.9844-3.8047-1.9844-6.7656z"/>
  </symbol>
  <symbol id="o" overflow="visible">
   <path d="m25.359-13.328v13.328h-7.0312v-10.203c0-1.8828-0.046875-3.1797-0.14062-3.8906-0.085938-0.71875-0.23047-1.25-0.4375-1.5938-0.27344-0.45703-0.64062-0.8125-1.1094-1.0625s-1-0.375-1.5938-0.375c-1.4609 0-2.6055 0.5625-3.4375 1.6875-0.83594 1.125-1.25 2.6836-1.25 4.6719v10.766h-7v-21.875h7v3.2031c1.0508-1.2812 2.1641-2.2227 3.3438-2.8281 1.1875-0.60156 2.5-0.90625 3.9375-0.90625 2.5195 0 4.4375 0.77734 5.75 2.3281 1.3125 1.5547 1.9688 3.8047 1.9688 6.75z"/>
  </symbol>
  <symbol id="n" overflow="visible">
   <path d="m3.6719-29.156h12.484c3.707 0 6.5508 0.82422 8.5312 2.4688 1.9883 1.6484 2.9844 3.9922 2.9844 7.0312 0 3.0625-0.99609 5.418-2.9844 7.0625-1.9805 1.6484-4.8242 2.4688-8.5312 2.4688h-4.9688v10.125h-7.5156zm7.5156 5.4375v8.1562h4.1719c1.457 0 2.582-0.35156 3.375-1.0625 0.78906-0.71875 1.1875-1.7266 1.1875-3.0312 0-1.3008-0.39844-2.3008-1.1875-3-0.79297-0.70703-1.918-1.0625-3.375-1.0625z"/>
  </symbol>
  <symbol id="m" overflow="visible">
   <path d="m3.3594-21.875h7v21.484c0 2.9258-0.70312 5.1602-2.1094 6.7031-1.4062 1.5508-3.4492 2.3281-6.125 2.3281h-3.4531v-4.5938h1.2031c1.332 0 2.2422-0.30469 2.7344-0.90625 0.5-0.59375 0.75-1.7734 0.75-3.5312zm0-8.5156h7v5.7031h-7z"/>
  </symbol>
  <symbol id="l" overflow="visible">
   <path d="m21.031-21.188v5.7031c-0.94922-0.65625-1.9023-1.1406-2.8594-1.4531-0.96094-0.3125-1.9492-0.46875-2.9688-0.46875-1.9609 0-3.4844 0.57422-4.5781 1.7188-1.0859 1.1367-1.625 2.7266-1.625 4.7656 0 2.043 0.53906 3.6367 1.625 4.7812 1.0938 1.1367 2.6172 1.7031 4.5781 1.7031 1.0938 0 2.1289-0.16016 3.1094-0.48438 0.97656-0.32031 1.8828-0.80469 2.7188-1.4531v5.7344c-1.0938 0.39844-2.2031 0.69141-3.3281 0.89062-1.125 0.20703-2.2578 0.3125-3.3906 0.3125-3.9375 0-7.0234-1.0078-9.25-3.0312-2.2305-2.0312-3.3438-4.8477-3.3438-8.4531 0-3.6016 1.1133-6.4141 3.3438-8.4375 2.2266-2.0312 5.3125-3.0469 9.25-3.0469 1.1445 0 2.2734 0.10547 3.3906 0.3125 1.1133 0.19922 2.2227 0.5 3.3281 0.90625z"/>
  </symbol>
 </defs>
 <g>
  <path d="m184 477.04h-36c-4.418 0-8-3.582-8-8 0-4.418 3.582-8 8-8h36c4.418 0 8 3.582 8 8 0 4.418-3.582 8-8 8z"/>
  <path d="m276 477.04h-36c-4.418 0-8-3.582-8-8 0-4.418 3.582-8 8-8h36c4.418 0 8 3.582 8 8 0 4.418-3.582 8-8 8z"/>
  <path d="m368 477.04h-36c-4.418 0-8-3.582-8-8 0-4.418 3.582-8 8-8h36c4.418 0 8 3.582 8 8 0 4.418-3.582 8-8 8z"/>
  <path d="m460 477.04h-36c-4.418 0-8-3.582-8-8 0-4.418 3.582-8 8-8h36c4.418 0 8 3.582 8 8 0 4.418-3.582 8-8 8z"/>
  <path d="m552 477.04h-36c-4.418 0-8-3.582-8-8 0-4.418 3.582-8 8-8h36c4.418 0 8 3.582 8 8 0 4.418-3.582 8-8 8z"/>
  <path d="m574 525.04h-448c-20.008 0-38.492-10.672-48.496-28-10.004-17.324-10.004-38.672 0-56 10.004-17.324 28.488-28 48.496-28h448c20.008 0 38.492 10.676 48.496 28 10.004 17.328 10.004 38.676 0 56-10.004 17.328-28.488 28-48.496 28zm-448-96c-14.289 0-27.496 7.625-34.641 20-7.1445 12.379-7.1445 27.625 0 40 7.1445 12.379 20.352 20 34.641 20h448c14.289 0 27.496-7.6211 34.641-20 7.1445-12.375 7.1445-27.621 0-40-7.1445-12.375-20.352-20-34.641-20z"/>
  <path d="m566 560h-74c-4.418 0-8-3.582-8-8v-34.961c0-4.418 3.582-8 8-8h74c2.1211 0 4.1562 0.84375 5.6562 2.3438s2.3438 3.5352 2.3438 5.6562v34.961c0 2.1211-0.84375 4.1562-2.3438 5.6562s-3.5352 2.3438-5.6562 2.3438zm-66-16h58v-18.961h-58z"/>
  <path d="m208 560h-74c-4.418 0-8-3.582-8-8v-34.961c0-4.418 3.582-8 8-8h74c2.1211 0 4.1562 0.84375 5.6562 2.3438s2.3438 3.5352 2.3438 5.6562v34.961c0 2.1211-0.84375 4.1562-2.3438 5.6562s-3.5352 2.3438-5.6562 2.3438zm-66-16h58v-18.961h-58z"/>
  <path d="m418 428.96c-0.74219 0.11719-1.4961 0.11719-2.2383 0-4.2422-1.2383-6.6797-5.6797-5.4414-9.9219l61.039-208c0.59375-2.0352 1.9727-3.7539 3.832-4.7734 1.8633-1.0195 4.0508-1.2578 6.0898-0.66406 4.2422 1.2344 6.6758 5.6758 5.4375 9.918l-61.039 208c-1.1094 3.2891-4.2109 5.4844-7.6797 5.4414z"/>
  <path d="m574 428.96c-4.418 0-8-3.582-8-8v-244.96c0-4.418 3.582-8 8-8s8 3.582 8 8v244.96c0 2.1211-0.84375 4.1562-2.3438 5.6562s-3.5352 2.3438-5.6562 2.3438z"/>
  <path d="m435.36 238.64c-3.8438 0.007813-7.1523-2.7188-7.875-6.4961-0.72656-3.7734 1.3398-7.5312 4.9141-8.9453l151.28-60 30.801-87.199c0.60547-2.125 2.0664-3.9062 4.0312-4.918 1.9648-1.0156 4.2656-1.168 6.3477-0.42578s3.7656 2.3164 4.6484 4.3438c0.88281 2.0273 0.88672 4.3281 0.011719 6.3594l-32 90.641c-0.75391 2.1836-2.418 3.9336-4.5586 4.8008l-154.96 61.277c-0.84375 0.33594-1.7344 0.52734-2.6406 0.5625z"/>
  <path d="m329.6 428.88h-2.4023c-7.4961-0.66406-14.387-4.3984-19.039-10.32-4.6641-5.8906-6.7188-13.434-5.6797-20.879l8.6406-59.281c1.0156-7.6289-2.0156-15.238-8-20.078l-33.039-28-22.723 24.879c-18.184 19.742-43.801 30.969-70.641 30.961h-61.84c-9.6016 0-18.477-5.125-23.277-13.441-4.8008-8.3164-4.8008-18.562 0-26.879 4.8008-8.3164 13.676-13.441 23.277-13.441h65.84c6.5625-0.011719 12.777-2.9453 16.961-8l31.359-37.359 18.32-100.24-8 0.71875c-8.4492 0.70312-15.898 5.8125-19.598 13.441l-13.762 29.199c-3.5391 6.8477-10.34 11.406-18.02 12.078-7.6797 0.66797-15.168-2.6445-19.84-8.7812-4.668-6.1328-5.8711-14.23-3.1797-21.457l12.719-32c8.9688-22.293 28.699-38.465 52.32-42.879l32-6.2422c7.9727-1.5078 16.188-1.1523 24 1.043l29.52 8c11.352 3.3047 21.23 10.387 28 20.078l10.801 15.359c2.4375 3.4648 5.75 6.2266 9.6016 7.9961 3.8477 1.7695 8.1016 2.4883 12.316 2.0859l26.559-2.3203h0.003906c7.9805-0.74219 15.777 2.6992 20.602 9.1016 4.8281 6.3984 5.9922 14.844 3.082 22.312s-9.4805 12.898-17.363 14.344l-34.398 6.4805h-0.003906c-17.258 3.2305-35.07-1.2734-48.719-12.32l-11.281 64.961 21.84 21.039c22.473 21.668 33.008 52.91 28.242 83.762l-8 53.039c-1.0625 6.4414-4.3828 12.297-9.3672 16.52-4.9805 4.2188-11.305 6.5312-17.832 6.5195zm-59.602-157.76c1.9062 0 3.75 0.67969 5.1992 1.918l38.961 32.961c10.035 8.4922 14.992 21.551 13.121 34.559l-9.2812 59.441c-0.42188 3.0742 0.41406 6.1914 2.3203 8.6406 1.9492 2.4766 4.8555 4.0156 8 4.2383 5.9375 0.5 11.262-3.6445 12.238-9.5195l8-53.039c3.9883-25.719-4.7852-51.773-23.52-69.84l-24.801-24c-1.9336-1.8281-2.832-4.4961-2.3984-7.1211l14.641-84.879c0.54688-3.1367 2.9023-5.6523 6-6.4023 3.0312-0.61719 6.1445 0.56641 8 3.043l1.2812 1.6797c4.875 6.6055 11.512 11.711 19.152 14.723 7.6367 3.0117 15.973 3.8164 24.047 2.3164l35.039-6.5586c3.9102-0.53125 6.6484-4.1328 6.1211-8.043-0.53125-3.9102-4.1328-6.6484-8.043-6.1172l-26.559 2.3984c-7.0156 0.64062-14.078-0.58203-20.469-3.5469-6.3906-2.9609-11.887-7.5625-15.93-13.332l-10.879-15.281h-0.003907c-4.7148-6.6719-11.578-11.527-19.438-13.758l-29.602-8c-5.2148-1.418-10.688-1.6367-16-0.64062l-32.559 6.2383c-18.289 3.418-33.543 15.984-40.402 33.281l-12.719 32c-1.1445 3.1133 0.27734 6.5859 3.2812 8 3.1836 1.5 6.9844 0.1875 8.5586-2.9609l14.238-29.199h0.003906c6.0664-12.492 18.18-20.938 32-22.32l18.48-1.6797h-0.003906c2.4922-0.23437 4.9492 0.71484 6.6406 2.5586 1.6602 1.8477 2.3711 4.3594 1.9219 6.8008l-20.242 112.4c-0.21875 1.3711-0.82813 2.6523-1.7578 3.6836l-32.719 38.961v-0.003906c-7.2148 8.6797-17.918 13.691-29.203 13.68h-65.84c-6.0078 0-10.879 4.8711-10.879 10.883 0 6.0078 4.8711 10.879 10.879 10.879h61.84c22.426-0.082031 43.789-9.5742 58.883-26.16l28.238-30.559c1.625-1.6211 3.8672-2.4688 6.1602-2.3203z"/>
  <path d="m327.36 88.961c-11.797 0-23.109-4.6875-31.453-13.027-8.3398-8.3438-13.027-19.656-13.027-31.453s4.6875-23.109 13.027-31.453c8.3438-8.3398 19.656-13.027 31.453-13.027s23.109 4.6875 31.453 13.027c8.3398 8.3438 13.027 19.656 13.027 31.453-0.019532 11.789-4.7148 23.09-13.051 31.43-8.3359 8.3359-19.641 13.027-31.43 13.051zm0-72.961c-7.5547 0-14.797 3-20.137 8.3398-5.3438 5.3438-8.3438 12.586-8.3438 20.141 0 7.5547 3 14.797 8.3438 20.137 5.3398 5.3438 12.582 8.3438 20.137 8.3438s14.797-3 20.141-8.3438c5.3398-5.3398 8.3398-12.582 8.3398-20.137-0.019532-7.5469-3.0273-14.777-8.3633-20.117-5.3398-5.3359-12.57-8.3438-20.117-8.3633z"/>
  <use x="70" y="680" xlink:href="#g"/>
  <use x="99.355469" y="680" xlink:href="#c"/>
  <use x="119.082031" y="680" xlink:href="#a"/>
  <use x="146.210938" y="680" xlink:href="#e"/>
  <use x="173.203125" y="680" xlink:href="#d"/>
  <use x="192.324219" y="680" xlink:href="#a"/>
  <use x="219.453125" y="680" xlink:href="#k"/>
  <use x="262.011719" y="680" xlink:href="#j"/>
  <use x="290.644531" y="680" xlink:href="#i"/>
  <use x="330.644531" y="680" xlink:href="#h"/>
  <use x="345.527344" y="680" xlink:href="#e"/>
  <use x="372.519531" y="680" xlink:href="#f"/>
  <use x="414.199219" y="680" xlink:href="#v"/>
  <use x="427.910156" y="680" xlink:href="#a"/>
  <use x="468.964844" y="680" xlink:href="#g"/>
  <use x="498.320312" y="680" xlink:href="#c"/>
  <use x="518.046875" y="680" xlink:href="#b"/>
  <use x="545.527344" y="680" xlink:href="#b"/>
  <use x="573.007812" y="680" xlink:href="#u"/>
  <use x="599.609375" y="680" xlink:href="#a"/>
  <use x="626.738281" y="680" xlink:href="#t"/>
  <use x="70" y="720" xlink:href="#s"/>
  <use x="87.402344" y="720" xlink:href="#c"/>
  <use x="107.128906" y="720" xlink:href="#b"/>
  <use x="134.609375" y="720" xlink:href="#f"/>
  <use x="190.214844" y="720" xlink:href="#d"/>
  <use x="209.335938" y="720" xlink:href="#r"/>
  <use x="237.8125" y="720" xlink:href="#a"/>
  <use x="278.867188" y="720" xlink:href="#q"/>
  <use x="312.34375" y="720" xlink:href="#b"/>
  <use x="339.824219" y="720" xlink:href="#p"/>
  <use x="368.300781" y="720" xlink:href="#o"/>
  <use x="410.703125" y="720" xlink:href="#n"/>
  <use x="440.019531" y="720" xlink:href="#c"/>
  <use x="459.746094" y="720" xlink:href="#b"/>
  <use x="487.226562" y="720" xlink:href="#m"/>
  <use x="500.9375" y="720" xlink:href="#a"/>
  <use x="528.066406" y="720" xlink:href="#l"/>
  <use x="551.777344" y="720" xlink:href="#d"/>
 </g>
</svg>
