<?xml version="1.0" encoding="UTF-8"?>
<svg width="700pt" height="700pt" version="1.1" viewBox="0 0 700 700" xmlns="http://www.w3.org/2000/svg" xmlns:xlink="http://www.w3.org/1999/xlink">
 <defs>
  <symbol id="w" overflow="visible">
   <path d="m0.03125 0h-0.015625-0.015625v-0.015625-0.015625h0.015625 0.015625-0.015625v0.015625 0.015625h0.015625v-0.015625z"/>
  </symbol>
  <symbol id="e" overflow="visible">
   <path d="m0.015625-0.015625v0.015625h-0.015625v-0.03125h0.015625v0.015625-0.015625z"/>
  </symbol>
  <symbol id="b" overflow="visible">
   <path d="m0.03125-0.015625h-0.015625v0.015625c0.0078125 0 0.015625-0.0039062 0.015625-0.015625v0.015625h-0.015625-0.015625v-0.015625l0.015625-0.015625v0.015625h0.015625z"/>
  </symbol>
  <symbol id="a" overflow="visible">
   <path d="m0.015625-0.015625v0.015625-0.015625zm0.015625 0v0.015625h-0.015625-0.015625v-0.015625h0.015625-0.015625v-0.015625h0.015625v0.015625h0.015625z"/>
  </symbol>
  <symbol id="d" overflow="visible">
   <path d="m0.015625-0.03125v0.015625 0.015625h-0.015625v-0.015625-0.015625z"/>
  </symbol>
  <symbol id="l" overflow="visible">
   <path d="m0.015625-0.015625v-0.015625h0.015625v0.03125h-0.015625-0.015625v-0.015625l0.015625-0.015625v0.015625zm0 0.015625v-0.015625 0.015625z"/>
  </symbol>
  <symbol id="k" overflow="visible">
   <path d="m0.015625 0v-0.015625 0.015625zm0-0.015625v-0.015625c0.0078125 0 0.015625 0.0078125 0.015625 0.015625v0.015625h-0.015625-0.015625v-0.03125h0.015625z"/>
  </symbol>
  <symbol id="j" overflow="visible">
   <path d="m0-0.03125h0.015625v0.015625-0.015625h0.015625l-0.015625 0.03125v0.015625h-0.015625v-0.015625h0.015625z"/>
  </symbol>
  <symbol id="i" overflow="visible">
   <path d="m0.015625-0.03125v0.015625 0.015625h0.015625v-0.015625c0-0.0078125-0.0078125-0.015625-0.015625-0.015625zm0 0h0.015625v0.015625 0.015625h-0.015625-0.015625v-0.015625-0.015625h0.015625z"/>
  </symbol>
  <symbol id="v" overflow="visible">
   <path d="m0-0.03125h0.015625v0.03125h-0.015625z"/>
  </symbol>
  <symbol id="f" overflow="visible">
   <path d="m0.03125-0.015625v0.015625h-0.015625v-0.015625 0.015625h-0.015625v-0.03125h0.015625v0.015625-0.015625c0.0078125 0 0.015625 0.0078125 0.015625 0.015625z"/>
  </symbol>
  <symbol id="h" overflow="visible">
   <path d="m0-0.03125h0.015625 0.015625v0.015625h-0.015625v0.015625h-0.015625zm0.015625 0v0.015625-0.015625z"/>
  </symbol>
  <symbol id="g" overflow="visible">
   <path d="m0.03125-0.03125v0.015625h-0.015625c0.0078125 0 0.015625 0.0078125 0.015625 0.015625h-0.015625-0.015625 0.015625v-0.015625h-0.015625l0.015625-0.015625h0.015625z"/>
  </symbol>
  <symbol id="c" overflow="visible">
   <path d="m0.015625-0.015625v0.015625-0.015625zm0-0.015625v0.015625h0.015625c0 0.011719-0.0078125 0.015625-0.015625 0.015625h-0.015625v-0.015625l0.015625-0.015625z"/>
  </symbol>
  <symbol id="u" overflow="visible">
   <path d="m0-0.03125h0.015625v0.015625-0.015625h0.015625l-0.015625 0.03125z"/>
  </symbol>
  <symbol id="t" overflow="visible">
   <path d="m0-0.03125h0.015625v0.015625-0.015625h0.015625l-0.015625 0.015625 0.015625 0.015625h-0.015625v-0.015625 0.015625h-0.015625z"/>
  </symbol>
  <symbol id="s" overflow="visible">
   <path d="m0.015625-0.03125v0.03125h-0.015625v-0.03125h0.015625z"/>
  </symbol>
  <symbol id="r" overflow="visible">
   <path d="m0.03125-0.015625v-0.015625c0.0078125 0 0.015625 0.0078125 0.015625 0.015625v0.015625h-0.015625v-0.015625 0.015625h-0.015625v-0.015625 0.015625h-0.015625v-0.03125h0.015625v0.015625-0.015625 0.015625h0.015625z"/>
  </symbol>
  <symbol id="q" overflow="visible">
   <path d="m0.03125-0.015625v0.015625h-0.015625v-0.015625 0.015625h-0.015625v-0.03125h0.015625v0.015625-0.015625c0.0078125 0 0.015625 0.0078125 0.015625 0.015625z"/>
  </symbol>
  <symbol id="p" overflow="visible">
   <path d="m0-0.03125h0.015625l0.015625 0.015625v-0.015625 0.03125l-0.015625-0.015625v0.015625h-0.015625z"/>
  </symbol>
  <symbol id="o" overflow="visible">
   <path d="m0-0.015625v-0.015625h0.015625v0.015625 0.015625-0.015625-0.015625h0.015625v0.03125h-0.015625-0.015625v-0.015625z"/>
  </symbol>
  <symbol id="n" overflow="visible">
   <path d="m0-0.03125h0.015625v0.03125h-0.015625v0.015625zm0 0h0.015625z"/>
  </symbol>
  <symbol id="m" overflow="visible">
   <path d="m0.03125-0.03125v0.015625h-0.015625v0.015625h0.015625-0.015625-0.015625v-0.015625l0.015625-0.015625h0.015625z"/>
  </symbol>
 </defs>
 <g>
  <path d="m486.11 107.18c1.1562-1.9609 3.6758-2.6055 5.6367-1.4453 1.9609 1.1562 2.6055 3.6758 1.4453 5.6367-2.3984 4.0508-4.8359 7.9805-7.2891 11.789-5.4883 10.016-9.0898 36.719-11.285 69.215-0.66406 9.8477-1.1836 20.207-1.5859 30.781v0.33594l-0.007812 0.09375v0.027344c-0.14063 3.8633-0.26953 7.7578-0.38281 11.656 0.57812 29.371 12.992 54.535 31.125 75.535 28.68 33.219 71.605 56.16 105.16 69.039 2.1172 0.8125 3.1719 3.1836 2.3711 5.3008-0.8125 2.1172-3.1836 3.1719-5.3008 2.3711l-0.625-0.24219c-36.645-14.074-86.102-33.066-115.63-71.203-7.4961-9.6875-13.457-21.242-17.723-33.777 0.019531 20.477 0.42188 39.723 1.082 55.523 0.09375 2.2695-1.6797 4.1797-3.9492 4.2656-2.2695 0.09375-4.1797-1.6797-4.2656-3.9492-1.1289-26.992-1.5039-63.941-0.55078-99.98-0.10156-4.8711 0.039062-9.7422 0.42969-14.559 0.019531-0.22266 0.039063-0.45703 0.054687-0.67969v-0.039062c0.40234-10.66 0.92578-21.094 1.5977-31.016 1.2422-18.469 3.0039-35.254 5.3945-48.523-14.551 19.125-29.84 34.336-45.508 45.742-24.977 18.172-50.895 26.684-76.289 25.977-25.395 0.71094-51.324-7.8008-76.289-25.977-15.672-11.406-30.957-26.617-45.508-45.742 2.4258 13.496 4.2109 30.613 5.4609 49.457 0.63281 9.6406 1.1484 19.75 1.5312 30.07l0.007812 0.046875c0.019531 0.22266 0.039062 0.45703 0.054688 0.67969 0.39062 4.8242 0.53125 9.6992 0.42969 14.57 0.98047 37.016 0.55859 75.004-0.64453 102.15-0.09375 2.2695-2.0156 4.0234-4.2852 3.9297-2.2695-0.09375-4.0234-2.0156-3.9297-4.2852 0.71875-16.184 1.1484-36.25 1.1758-57.672-4.2656 12.535-10.219 24.09-17.723 33.777-29.531 38.145-78.98 57.129-115.63 71.203l-0.625 0.24219c-2.1172 0.8125-4.4883-0.25391-5.3008-2.3711-0.8125-2.1172 0.25391-4.4883 2.3711-5.3008 33.555-12.891 76.477-35.82 105.16-69.039 18.133-21 30.547-46.172 31.125-75.543-0.11328-3.8906-0.24219-7.7734-0.38281-11.629v-0.054688c0-0.027344-0.007813-0.054687-0.007813-0.09375v-0.023437-0.09375-0.12109-0.066406-0.007813c-0.38281-10.246-0.88672-20.301-1.5195-29.875-2.1758-32.91-5.7969-60.012-11.348-70.121-2.4531-3.8086-4.8906-7.7383-7.2891-11.789-1.1562-1.9609-0.50391-4.4805 1.4453-5.6367 1.9609-1.1562 4.4805-0.50391 5.6367 1.4453 19.375 32.676 40.676 55.805 62.703 70.926 24.09 16.531 49.055 23.492 73.332 22.934h0.16016c24.277 0.57031 49.242-6.3945 73.332-22.934 22.027-15.121 43.316-38.238 62.703-70.926zm-183.3 8.8477c-1.8281-1.3359-2.2383-3.9023-0.90625-5.7305 1.3359-1.8281 3.9023-2.2383 5.7305-0.90625 12.816 9.3438 28.68 14.551 44.605 14.551 14.82 0 29.645-4.5273 42.039-14.438 1.7734-1.4102 4.3477-1.1289 5.7695 0.64453 1.4102 1.7734 1.1289 4.3477-0.64453 5.7695-13.973 11.172-30.594 16.27-47.16 16.27-17.613 0-35.195-5.7852-49.43-16.156zm-22.055 327.78c2.2109-0.11328 4.1328 1.5508 4.3203 3.7812 0.1875 2.2695-1.5039 4.2578-3.7695 4.4414-31.23 2.5938-59.883 3.8281-87.07 0.84766-27.309-2.9883-53.012-10.191-78.137-24.461-1.9688-0.96875-2.8359-3.3242-1.9414-5.3477 0.91406-2.082 3.3398-3.0234 5.4219-2.1094 45.707 20.105 98.148 21.344 148.18 22.531 4.3477 0.10156 8.6875 0.20703 13 0.31641zm21.074-72.566c-2.6133-5.3945-5.2812-10.688-7.9336-15.941-7.9414-15.746-15.719-31.184-21.477-48.066-4.7031-13.805-7.9688-28.559-11.359-43.82-1.9688-8.875-3.9648-17.922-6.3086-26.992-0.35547-1.3711 0.47656-2.7734 1.8477-3.1172 1.3711-0.35547 2.7734 0.47656 3.1172 1.8477 6.4219 24.938 12.992 47.863 20.535 69.879 7.5117 21.934 15.969 42.895 26.188 63.98 0.61719 1.2773 0.085938 2.8203-1.1953 3.4336-1.2773 0.61719-2.8203 0.085938-3.4336-1.1953zm116.81 80.77c-2.2578-0.22266-3.9102-2.2305-3.6875-4.4883 0.21484-2.1367 2.0156-3.7227 4.125-3.707 4.3672-0.11328 8.7656-0.22266 13.18-0.32812 50.027-1.1836 102.47-2.4258 148.18-22.531 2.082-0.91406 4.5078 0.027343 5.4219 2.1094 0.86719 1.9805 0.054687 4.2734-1.8203 5.2812-22.438 13.625-48.113 21.129-76.094 24.426-27.785 3.2773-57.867 2.3906-89.312-0.76562zm26.609-215.6c-2.332 9.0625-4.3398 18.117-6.3086 26.992-3.3789 15.262-6.6562 30.023-11.359 43.82-5.7578 16.883-13.535 32.32-21.477 48.066-2.6523 5.2539-5.3125 10.547-7.9336 15.941-0.61719 1.2773-2.1562 1.8125-3.4336 1.1953-1.2773-0.61719-1.8125-2.1562-1.1953-3.4336 10.219-21.074 18.676-42.047 26.188-63.98 7.543-22.016 14.113-44.941 20.535-69.879 0.35547-1.3711 1.7461-2.2031 3.1172-1.8477 1.3711 0.35547 2.2031 1.7461 1.8477 3.1172z"/>
  <use x="70" y="560.140625" xlink:href="#w"/>
  <use x="70.035156" y="560.140625" xlink:href="#e"/>
  <use x="70.058594" y="560.140625" xlink:href="#b"/>
  <use x="70.089844" y="560.140625" xlink:href="#a"/>
  <use x="70.121094" y="560.140625" xlink:href="#d"/>
  <use x="70.144531" y="560.140625" xlink:href="#b"/>
  <use x="70.175781" y="560.140625" xlink:href="#l"/>
  <use x="70.222656" y="560.140625" xlink:href="#k"/>
  <use x="70.257812" y="560.140625" xlink:href="#j"/>
  <use x="70.304688" y="560.140625" xlink:href="#i"/>
  <use x="70.34375" y="560.140625" xlink:href="#v"/>
  <use x="70.359375" y="560.140625" xlink:href="#b"/>
  <use x="70.390625" y="560.140625" xlink:href="#f"/>
  <use x="70.425781" y="560.140625" xlink:href="#a"/>
  <use x="70.472656" y="560.140625" xlink:href="#h"/>
  <use x="70.507812" y="560.140625" xlink:href="#a"/>
  <use x="70.539062" y="560.140625" xlink:href="#f"/>
  <use x="70.570312" y="560.140625" xlink:href="#a"/>
  <use x="70.601562" y="560.140625" xlink:href="#g"/>
  <use x="70.628906" y="560.140625" xlink:href="#c"/>
  <use x="70.664062" y="560.140625" xlink:href="#u"/>
  <use x="70.691406" y="560.140625" xlink:href="#g"/>
  <use x="70.722656" y="560.140625" xlink:href="#t"/>
  <use x="70.75" y="560.140625" xlink:href="#a"/>
  <use x="70" y="560.1875" xlink:href="#s"/>
  <use x="70.019531" y="560.1875" xlink:href="#e"/>
  <use x="70.042969" y="560.1875" xlink:href="#c"/>
  <use x="70.074219" y="560.1875" xlink:href="#r"/>
  <use x="70.140625" y="560.1875" xlink:href="#d"/>
  <use x="70.164062" y="560.1875" xlink:href="#q"/>
  <use x="70.195312" y="560.1875" xlink:href="#b"/>
  <use x="70.242188" y="560.1875" xlink:href="#p"/>
  <use x="70.28125" y="560.1875" xlink:href="#c"/>
  <use x="70.316406" y="560.1875" xlink:href="#o"/>
  <use x="70.347656" y="560.1875" xlink:href="#f"/>
  <use x="70.398438" y="560.1875" xlink:href="#h"/>
  <use x="70.433594" y="560.1875" xlink:href="#e"/>
  <use x="70.453125" y="560.1875" xlink:href="#c"/>
  <use x="70.488281" y="560.1875" xlink:href="#n"/>
  <use x="70.503906" y="560.1875" xlink:href="#b"/>
  <use x="70.535156" y="560.1875" xlink:href="#m"/>
  <use x="70.5625" y="560.1875" xlink:href="#d"/>
 </g>
</svg>
